<?xml version="1.0" encoding="utf-8" standalone="no"?>
<!DOCTYPE svg PUBLIC "-//W3C//DTD SVG 1.1//EN"
  "http://www.w3.org/Graphics/SVG/1.1/DTD/svg11.dtd">
<!-- Created with matplotlib (https://matplotlib.org/) -->
<svg height="288pt" version="1.1" viewBox="0 0 360 288" width="360pt" xmlns="http://www.w3.org/2000/svg" xmlns:xlink="http://www.w3.org/1999/xlink">
 <metadata>
  <rdf:RDF xmlns:cc="http://creativecommons.org/ns#" xmlns:dc="http://purl.org/dc/elements/1.1/" xmlns:rdf="http://www.w3.org/1999/02/22-rdf-syntax-ns#">
   <cc:Work>
    <dc:type rdf:resource="http://purl.org/dc/dcmitype/StillImage"/>
    <dc:date>2021-06-25T19:02:07.644029</dc:date>
    <dc:format>image/svg+xml</dc:format>
    <dc:creator>
     <cc:Agent>
      <dc:title>Matplotlib v3.3.4, https://matplotlib.org/</dc:title>
     </cc:Agent>
    </dc:creator>
   </cc:Work>
  </rdf:RDF>
 </metadata>
 <defs>
  <style type="text/css">*{stroke-linecap:butt;stroke-linejoin:round;}</style>
 </defs>
 <g id="figure_1">
  <g id="patch_1">
   <path d="M 0 288 
L 360 288 
L 360 0 
L 0 0 
z
" style="fill:#ffffff;"/>
  </g>
  <g id="axes_1">
   <g id="patch_2">
    <path d="M 159.62625 275.04 
L 347.04 275.04 
L 347.04 18.72 
L 159.62625 18.72 
z
" style="fill:#ffffff;"/>
   </g>
   <g id="line2d_1">
    <path clip-path="url(#p4876d6c43d)" d="M 229.444952 275.04 
L 229.444952 18.72 
" style="fill:none;stroke:#cccccc;stroke-linecap:round;stroke-width:1.5;"/>
   </g>
   <g id="line2d_2">
    <path clip-path="url(#p4876d6c43d)" d="M 269.207304 275.04 
L 269.207304 -1 
" style="fill:none;stroke:#cccccc;stroke-linecap:round;stroke-width:1.5;"/>
   </g>
   <g id="line2d_3">
    <path clip-path="url(#p4876d6c43d)" d="M 300.148429 275.04 
L 300.148429 -1 
" style="fill:none;stroke:#cccccc;stroke-linecap:round;stroke-width:1.5;"/>
   </g>
   <g id="line2d_4">
    <path clip-path="url(#p4876d6c43d)" d="M 327.941121 275.04 
L 327.941121 -1 
" style="fill:none;stroke:#cccccc;stroke-linecap:round;stroke-width:1.5;"/>
   </g>
   <g id="line2d_5">
    <path clip-path="url(#p4876d6c43d)" d="M 339.910781 275.04 
L 339.910781 -1 
" style="fill:none;stroke:#cccccc;stroke-linecap:round;stroke-width:1.5;"/>
   </g>
   <g id="matplotlib.axis_1">
    <g id="xtick_1"/>
    <g id="xtick_2"/>
    <g id="xtick_3"/>
    <g id="xtick_4"/>
    <g id="xtick_5"/>
    <g id="xtick_6"/>
    <g id="xtick_7"/>
    <g id="xtick_8"/>
    <g id="xtick_9"/>
    <g id="xtick_10"/>
    <g id="xtick_11"/>
    <g id="xtick_12"/>
    <g id="xtick_13"/>
    <g id="xtick_14"/>
    <g id="xtick_15"/>
    <g id="xtick_16"/>
    <g id="xtick_17"/>
    <g id="xtick_18"/>
    <g id="xtick_19"/>
    <g id="xtick_20"/>
    <g id="xtick_21"/>
    <g id="xtick_22"/>
    <g id="xtick_23"/>
    <g id="xtick_24"/>
    <g id="xtick_25"/>
    <g id="xtick_26"/>
    <g id="xtick_27"/>
    <g id="xtick_28"/>
    <g id="xtick_29"/>
    <g id="xtick_30"/>
    <g id="xtick_31"/>
    <g id="xtick_32"/>
    <g id="xtick_33"/>
    <g id="xtick_34"/>
    <g id="xtick_35"/>
    <g id="xtick_36"/>
    <g id="xtick_37"/>
    <g id="xtick_38"/>
    <g id="xtick_39"/>
    <g id="xtick_40"/>
   </g>
   <g id="matplotlib.axis_2">
    <g id="ytick_1">
     <g id="text_1">
      <!-- T1. Random -->
      <g style="fill:#262626;" transform="translate(89.603906 36.896797)scale(0.11 -0.11)">
       <defs>
        <path d="M 25.921875 0 
L 25.921875 63.140625 
L 2.34375 63.140625 
L 2.34375 71.578125 
L 59.078125 71.578125 
L 59.078125 63.140625 
L 35.40625 63.140625 
L 35.40625 0 
z
" id="ArialMT-84"/>
        <path d="M 37.25 0 
L 28.46875 0 
L 28.46875 56 
Q 25.296875 52.984375 20.140625 49.953125 
Q 14.984375 46.921875 10.890625 45.40625 
L 10.890625 53.90625 
Q 18.265625 57.375 23.78125 62.296875 
Q 29.296875 67.234375 31.59375 71.875 
L 37.25 71.875 
z
" id="ArialMT-49"/>
        <path d="M 9.078125 0 
L 9.078125 10.015625 
L 19.09375 10.015625 
L 19.09375 0 
z
" id="ArialMT-46"/>
        <path id="ArialMT-32"/>
        <path d="M 7.859375 0 
L 7.859375 71.578125 
L 39.59375 71.578125 
Q 49.171875 71.578125 54.140625 69.640625 
Q 59.125 67.71875 62.109375 62.828125 
Q 65.09375 57.953125 65.09375 52.046875 
Q 65.09375 44.4375 60.15625 39.203125 
Q 55.21875 33.984375 44.921875 32.5625 
Q 48.6875 30.765625 50.640625 29 
Q 54.78125 25.203125 58.5 19.484375 
L 70.953125 0 
L 59.03125 0 
L 49.5625 14.890625 
Q 45.40625 21.34375 42.71875 24.75 
Q 40.046875 28.171875 37.921875 29.53125 
Q 35.796875 30.90625 33.59375 31.453125 
Q 31.984375 31.78125 28.328125 31.78125 
L 17.328125 31.78125 
L 17.328125 0 
z
M 17.328125 39.984375 
L 37.703125 39.984375 
Q 44.1875 39.984375 47.84375 41.328125 
Q 51.515625 42.671875 53.421875 45.625 
Q 55.328125 48.578125 55.328125 52.046875 
Q 55.328125 57.125 51.640625 60.390625 
Q 47.953125 63.671875 39.984375 63.671875 
L 17.328125 63.671875 
z
" id="ArialMT-82"/>
        <path d="M 40.4375 6.390625 
Q 35.546875 2.25 31.03125 0.53125 
Q 26.515625 -1.171875 21.34375 -1.171875 
Q 12.796875 -1.171875 8.203125 3 
Q 3.609375 7.171875 3.609375 13.671875 
Q 3.609375 17.484375 5.34375 20.625 
Q 7.078125 23.78125 9.890625 25.6875 
Q 12.703125 27.59375 16.21875 28.5625 
Q 18.796875 29.25 24.03125 29.890625 
Q 34.671875 31.15625 39.703125 32.90625 
Q 39.75 34.71875 39.75 35.203125 
Q 39.75 40.578125 37.25 42.78125 
Q 33.890625 45.75 27.25 45.75 
Q 21.046875 45.75 18.09375 43.578125 
Q 15.140625 41.40625 13.71875 35.890625 
L 5.125 37.0625 
Q 6.296875 42.578125 8.984375 45.96875 
Q 11.671875 49.359375 16.75 51.1875 
Q 21.828125 53.03125 28.515625 53.03125 
Q 35.15625 53.03125 39.296875 51.46875 
Q 43.453125 49.90625 45.40625 47.53125 
Q 47.359375 45.171875 48.140625 41.546875 
Q 48.578125 39.3125 48.578125 33.453125 
L 48.578125 21.734375 
Q 48.578125 9.46875 49.140625 6.21875 
Q 49.703125 2.984375 51.375 0 
L 42.1875 0 
Q 40.828125 2.734375 40.4375 6.390625 
z
M 39.703125 26.03125 
Q 34.90625 24.078125 25.34375 22.703125 
Q 19.921875 21.921875 17.671875 20.9375 
Q 15.4375 19.96875 14.203125 18.09375 
Q 12.984375 16.21875 12.984375 13.921875 
Q 12.984375 10.40625 15.640625 8.0625 
Q 18.3125 5.71875 23.4375 5.71875 
Q 28.515625 5.71875 32.46875 7.9375 
Q 36.421875 10.15625 38.28125 14.015625 
Q 39.703125 17 39.703125 22.796875 
z
" id="ArialMT-97"/>
        <path d="M 6.59375 0 
L 6.59375 51.859375 
L 14.5 51.859375 
L 14.5 44.484375 
Q 20.21875 53.03125 31 53.03125 
Q 35.6875 53.03125 39.625 51.34375 
Q 43.5625 49.65625 45.515625 46.921875 
Q 47.46875 44.1875 48.25 40.4375 
Q 48.734375 37.984375 48.734375 31.890625 
L 48.734375 0 
L 39.9375 0 
L 39.9375 31.546875 
Q 39.9375 36.921875 38.90625 39.578125 
Q 37.890625 42.234375 35.28125 43.8125 
Q 32.671875 45.40625 29.15625 45.40625 
Q 23.53125 45.40625 19.453125 41.84375 
Q 15.375 38.28125 15.375 28.328125 
L 15.375 0 
z
" id="ArialMT-110"/>
        <path d="M 40.234375 0 
L 40.234375 6.546875 
Q 35.296875 -1.171875 25.734375 -1.171875 
Q 19.53125 -1.171875 14.328125 2.25 
Q 9.125 5.671875 6.265625 11.796875 
Q 3.421875 17.921875 3.421875 25.875 
Q 3.421875 33.640625 6 39.96875 
Q 8.59375 46.296875 13.765625 49.65625 
Q 18.953125 53.03125 25.34375 53.03125 
Q 30.03125 53.03125 33.6875 51.046875 
Q 37.359375 49.078125 39.65625 45.90625 
L 39.65625 71.578125 
L 48.390625 71.578125 
L 48.390625 0 
z
M 12.453125 25.875 
Q 12.453125 15.921875 16.640625 10.984375 
Q 20.84375 6.0625 26.5625 6.0625 
Q 32.328125 6.0625 36.34375 10.765625 
Q 40.375 15.484375 40.375 25.140625 
Q 40.375 35.796875 36.265625 40.765625 
Q 32.171875 45.75 26.171875 45.75 
Q 20.3125 45.75 16.375 40.96875 
Q 12.453125 36.1875 12.453125 25.875 
z
" id="ArialMT-100"/>
        <path d="M 3.328125 25.921875 
Q 3.328125 40.328125 11.328125 47.265625 
Q 18.015625 53.03125 27.640625 53.03125 
Q 38.328125 53.03125 45.109375 46.015625 
Q 51.90625 39.015625 51.90625 26.65625 
Q 51.90625 16.65625 48.90625 10.90625 
Q 45.90625 5.171875 40.15625 2 
Q 34.421875 -1.171875 27.640625 -1.171875 
Q 16.75 -1.171875 10.03125 5.8125 
Q 3.328125 12.796875 3.328125 25.921875 
z
M 12.359375 25.921875 
Q 12.359375 15.96875 16.703125 11.015625 
Q 21.046875 6.0625 27.640625 6.0625 
Q 34.1875 6.0625 38.53125 11.03125 
Q 42.875 16.015625 42.875 26.21875 
Q 42.875 35.84375 38.5 40.796875 
Q 34.125 45.75 27.640625 45.75 
Q 21.046875 45.75 16.703125 40.8125 
Q 12.359375 35.890625 12.359375 25.921875 
z
" id="ArialMT-111"/>
        <path d="M 6.59375 0 
L 6.59375 51.859375 
L 14.453125 51.859375 
L 14.453125 44.578125 
Q 16.890625 48.390625 20.9375 50.703125 
Q 25 53.03125 30.171875 53.03125 
Q 35.9375 53.03125 39.625 50.640625 
Q 43.3125 48.25 44.828125 43.953125 
Q 50.984375 53.03125 60.84375 53.03125 
Q 68.5625 53.03125 72.703125 48.75 
Q 76.859375 44.484375 76.859375 35.59375 
L 76.859375 0 
L 68.109375 0 
L 68.109375 32.671875 
Q 68.109375 37.9375 67.25 40.25 
Q 66.40625 42.578125 64.15625 43.984375 
Q 61.921875 45.40625 58.890625 45.40625 
Q 53.421875 45.40625 49.796875 41.765625 
Q 46.1875 38.140625 46.1875 30.125 
L 46.1875 0 
L 37.40625 0 
L 37.40625 33.6875 
Q 37.40625 39.546875 35.25 42.46875 
Q 33.109375 45.40625 28.21875 45.40625 
Q 24.515625 45.40625 21.359375 43.453125 
Q 18.21875 41.5 16.796875 37.734375 
Q 15.375 33.984375 15.375 26.90625 
L 15.375 0 
z
" id="ArialMT-109"/>
       </defs>
       <use xlink:href="#ArialMT-84"/>
       <use x="61.083984" xlink:href="#ArialMT-49"/>
       <use x="116.699219" xlink:href="#ArialMT-46"/>
       <use x="144.482422" xlink:href="#ArialMT-32"/>
       <use x="172.265625" xlink:href="#ArialMT-82"/>
       <use x="244.482422" xlink:href="#ArialMT-97"/>
       <use x="300.097656" xlink:href="#ArialMT-110"/>
       <use x="355.712891" xlink:href="#ArialMT-100"/>
       <use x="411.328125" xlink:href="#ArialMT-111"/>
       <use x="466.943359" xlink:href="#ArialMT-109"/>
      </g>
     </g>
    </g>
    <g id="ytick_2">
     <g id="text_2">
      <!-- T2. Variants stratified -->
      <g style="fill:#262626;" transform="translate(47.013281 65.376797)scale(0.11 -0.11)">
       <defs>
        <path d="M 50.34375 8.453125 
L 50.34375 0 
L 3.03125 0 
Q 2.9375 3.171875 4.046875 6.109375 
Q 5.859375 10.9375 9.828125 15.625 
Q 13.8125 20.3125 21.34375 26.46875 
Q 33.015625 36.03125 37.109375 41.625 
Q 41.21875 47.21875 41.21875 52.203125 
Q 41.21875 57.421875 37.46875 61 
Q 33.734375 64.59375 27.734375 64.59375 
Q 21.390625 64.59375 17.578125 60.78125 
Q 13.765625 56.984375 13.71875 50.25 
L 4.6875 51.171875 
Q 5.609375 61.28125 11.65625 66.578125 
Q 17.71875 71.875 27.9375 71.875 
Q 38.234375 71.875 44.234375 66.15625 
Q 50.25 60.453125 50.25 52 
Q 50.25 47.703125 48.484375 43.546875 
Q 46.734375 39.40625 42.65625 34.8125 
Q 38.578125 30.21875 29.109375 22.21875 
Q 21.1875 15.578125 18.9375 13.203125 
Q 16.703125 10.84375 15.234375 8.453125 
z
" id="ArialMT-50"/>
        <path d="M 28.171875 0 
L 0.4375 71.578125 
L 10.6875 71.578125 
L 29.296875 19.578125 
Q 31.546875 13.328125 33.0625 7.859375 
Q 34.71875 13.71875 36.921875 19.578125 
L 56.25 71.578125 
L 65.921875 71.578125 
L 37.890625 0 
z
" id="ArialMT-86"/>
        <path d="M 6.5 0 
L 6.5 51.859375 
L 14.40625 51.859375 
L 14.40625 44 
Q 17.4375 49.515625 20 51.265625 
Q 22.5625 53.03125 25.640625 53.03125 
Q 30.078125 53.03125 34.671875 50.203125 
L 31.640625 42.046875 
Q 28.421875 43.953125 25.203125 43.953125 
Q 22.3125 43.953125 20.015625 42.21875 
Q 17.71875 40.484375 16.75 37.40625 
Q 15.28125 32.71875 15.28125 27.15625 
L 15.28125 0 
z
" id="ArialMT-114"/>
        <path d="M 6.640625 61.46875 
L 6.640625 71.578125 
L 15.4375 71.578125 
L 15.4375 61.46875 
z
M 6.640625 0 
L 6.640625 51.859375 
L 15.4375 51.859375 
L 15.4375 0 
z
" id="ArialMT-105"/>
        <path d="M 25.78125 7.859375 
L 27.046875 0.09375 
Q 23.34375 -0.6875 20.40625 -0.6875 
Q 15.625 -0.6875 12.984375 0.828125 
Q 10.359375 2.34375 9.28125 4.8125 
Q 8.203125 7.28125 8.203125 15.1875 
L 8.203125 45.015625 
L 1.765625 45.015625 
L 1.765625 51.859375 
L 8.203125 51.859375 
L 8.203125 64.703125 
L 16.9375 69.96875 
L 16.9375 51.859375 
L 25.78125 51.859375 
L 25.78125 45.015625 
L 16.9375 45.015625 
L 16.9375 14.703125 
Q 16.9375 10.9375 17.40625 9.859375 
Q 17.875 8.796875 18.921875 8.15625 
Q 19.96875 7.515625 21.921875 7.515625 
Q 23.390625 7.515625 25.78125 7.859375 
z
" id="ArialMT-116"/>
        <path d="M 3.078125 15.484375 
L 11.765625 16.84375 
Q 12.5 11.625 15.84375 8.84375 
Q 19.1875 6.0625 25.203125 6.0625 
Q 31.25 6.0625 34.171875 8.515625 
Q 37.109375 10.984375 37.109375 14.3125 
Q 37.109375 17.28125 34.515625 19 
Q 32.71875 20.171875 25.53125 21.96875 
Q 15.875 24.421875 12.140625 26.203125 
Q 8.40625 27.984375 6.46875 31.125 
Q 4.546875 34.28125 4.546875 38.09375 
Q 4.546875 41.546875 6.125 44.5 
Q 7.71875 47.46875 10.453125 49.421875 
Q 12.5 50.921875 16.03125 51.96875 
Q 19.578125 53.03125 23.640625 53.03125 
Q 29.734375 53.03125 34.34375 51.265625 
Q 38.96875 49.515625 41.15625 46.5 
Q 43.359375 43.5 44.1875 38.484375 
L 35.59375 37.3125 
Q 35.015625 41.3125 32.203125 43.546875 
Q 29.390625 45.796875 24.265625 45.796875 
Q 18.21875 45.796875 15.625 43.796875 
Q 13.03125 41.796875 13.03125 39.109375 
Q 13.03125 37.40625 14.109375 36.03125 
Q 15.1875 34.625 17.484375 33.6875 
Q 18.796875 33.203125 25.25 31.453125 
Q 34.578125 28.953125 38.25 27.359375 
Q 41.9375 25.78125 44.03125 22.75 
Q 46.140625 19.734375 46.140625 15.234375 
Q 46.140625 10.84375 43.578125 6.953125 
Q 41.015625 3.078125 36.171875 0.953125 
Q 31.34375 -1.171875 25.25 -1.171875 
Q 15.140625 -1.171875 9.84375 3.03125 
Q 4.546875 7.234375 3.078125 15.484375 
z
" id="ArialMT-115"/>
        <path d="M 8.6875 0 
L 8.6875 45.015625 
L 0.921875 45.015625 
L 0.921875 51.859375 
L 8.6875 51.859375 
L 8.6875 57.375 
Q 8.6875 62.59375 9.625 65.140625 
Q 10.890625 68.5625 14.078125 70.671875 
Q 17.28125 72.796875 23.046875 72.796875 
Q 26.765625 72.796875 31.25 71.921875 
L 29.9375 64.265625 
Q 27.203125 64.75 24.75 64.75 
Q 20.75 64.75 19.09375 63.03125 
Q 17.4375 61.328125 17.4375 56.640625 
L 17.4375 51.859375 
L 27.546875 51.859375 
L 27.546875 45.015625 
L 17.4375 45.015625 
L 17.4375 0 
z
" id="ArialMT-102"/>
        <path d="M 42.09375 16.703125 
L 51.171875 15.578125 
Q 49.03125 7.625 43.21875 3.21875 
Q 37.40625 -1.171875 28.375 -1.171875 
Q 17 -1.171875 10.328125 5.828125 
Q 3.65625 12.84375 3.65625 25.484375 
Q 3.65625 38.578125 10.390625 45.796875 
Q 17.140625 53.03125 27.875 53.03125 
Q 38.28125 53.03125 44.875 45.953125 
Q 51.46875 38.875 51.46875 26.03125 
Q 51.46875 25.25 51.421875 23.6875 
L 12.75 23.6875 
Q 13.234375 15.140625 17.578125 10.59375 
Q 21.921875 6.0625 28.421875 6.0625 
Q 33.25 6.0625 36.671875 8.59375 
Q 40.09375 11.140625 42.09375 16.703125 
z
M 13.234375 30.90625 
L 42.1875 30.90625 
Q 41.609375 37.453125 38.875 40.71875 
Q 34.671875 45.796875 27.984375 45.796875 
Q 21.921875 45.796875 17.796875 41.75 
Q 13.671875 37.703125 13.234375 30.90625 
z
" id="ArialMT-101"/>
       </defs>
       <use xlink:href="#ArialMT-84"/>
       <use x="61.083984" xlink:href="#ArialMT-50"/>
       <use x="116.699219" xlink:href="#ArialMT-46"/>
       <use x="144.482422" xlink:href="#ArialMT-32"/>
       <use x="172.265625" xlink:href="#ArialMT-86"/>
       <use x="231.589844" xlink:href="#ArialMT-97"/>
       <use x="287.205078" xlink:href="#ArialMT-114"/>
       <use x="320.505859" xlink:href="#ArialMT-105"/>
       <use x="342.722656" xlink:href="#ArialMT-97"/>
       <use x="398.337891" xlink:href="#ArialMT-110"/>
       <use x="453.953125" xlink:href="#ArialMT-116"/>
       <use x="481.736328" xlink:href="#ArialMT-115"/>
       <use x="531.736328" xlink:href="#ArialMT-32"/>
       <use x="559.519531" xlink:href="#ArialMT-115"/>
       <use x="609.519531" xlink:href="#ArialMT-116"/>
       <use x="637.302734" xlink:href="#ArialMT-114"/>
       <use x="670.603516" xlink:href="#ArialMT-97"/>
       <use x="726.21875" xlink:href="#ArialMT-116"/>
       <use x="754.001953" xlink:href="#ArialMT-105"/>
       <use x="776.21875" xlink:href="#ArialMT-102"/>
       <use x="804.001953" xlink:href="#ArialMT-105"/>
       <use x="826.21875" xlink:href="#ArialMT-101"/>
       <use x="881.833984" xlink:href="#ArialMT-100"/>
      </g>
     </g>
    </g>
    <g id="ytick_3">
     <g id="text_3">
      <!-- T3. Variants biased -->
      <g style="fill:#262626;" transform="translate(56.170781 93.856797)scale(0.11 -0.11)">
       <defs>
        <path d="M 4.203125 18.890625 
L 12.984375 20.0625 
Q 14.5 12.59375 18.140625 9.296875 
Q 21.78125 6 27 6 
Q 33.203125 6 37.46875 10.296875 
Q 41.75 14.59375 41.75 20.953125 
Q 41.75 27 37.796875 30.921875 
Q 33.84375 34.859375 27.734375 34.859375 
Q 25.25 34.859375 21.53125 33.890625 
L 22.515625 41.609375 
Q 23.390625 41.5 23.921875 41.5 
Q 29.546875 41.5 34.03125 44.421875 
Q 38.53125 47.359375 38.53125 53.46875 
Q 38.53125 58.296875 35.25 61.46875 
Q 31.984375 64.65625 26.8125 64.65625 
Q 21.6875 64.65625 18.265625 61.421875 
Q 14.84375 58.203125 13.875 51.765625 
L 5.078125 53.328125 
Q 6.6875 62.15625 12.390625 67.015625 
Q 18.109375 71.875 26.609375 71.875 
Q 32.46875 71.875 37.390625 69.359375 
Q 42.328125 66.84375 44.9375 62.5 
Q 47.5625 58.15625 47.5625 53.265625 
Q 47.5625 48.640625 45.0625 44.828125 
Q 42.578125 41.015625 37.703125 38.765625 
Q 44.046875 37.3125 47.5625 32.6875 
Q 51.078125 28.078125 51.078125 21.140625 
Q 51.078125 11.765625 44.234375 5.25 
Q 37.40625 -1.265625 26.953125 -1.265625 
Q 17.53125 -1.265625 11.296875 4.34375 
Q 5.078125 9.96875 4.203125 18.890625 
z
" id="ArialMT-51"/>
        <path d="M 14.703125 0 
L 6.546875 0 
L 6.546875 71.578125 
L 15.328125 71.578125 
L 15.328125 46.046875 
Q 20.90625 53.03125 29.546875 53.03125 
Q 34.328125 53.03125 38.59375 51.09375 
Q 42.875 49.171875 45.625 45.671875 
Q 48.390625 42.1875 49.953125 37.25 
Q 51.515625 32.328125 51.515625 26.703125 
Q 51.515625 13.375 44.921875 6.09375 
Q 38.328125 -1.171875 29.109375 -1.171875 
Q 19.921875 -1.171875 14.703125 6.5 
z
M 14.59375 26.3125 
Q 14.59375 17 17.140625 12.84375 
Q 21.296875 6.0625 28.375 6.0625 
Q 34.125 6.0625 38.328125 11.0625 
Q 42.53125 16.0625 42.53125 25.984375 
Q 42.53125 36.140625 38.5 40.96875 
Q 34.46875 45.796875 28.765625 45.796875 
Q 23 45.796875 18.796875 40.796875 
Q 14.59375 35.796875 14.59375 26.3125 
z
" id="ArialMT-98"/>
       </defs>
       <use xlink:href="#ArialMT-84"/>
       <use x="61.083984" xlink:href="#ArialMT-51"/>
       <use x="116.699219" xlink:href="#ArialMT-46"/>
       <use x="144.482422" xlink:href="#ArialMT-32"/>
       <use x="172.265625" xlink:href="#ArialMT-86"/>
       <use x="231.589844" xlink:href="#ArialMT-97"/>
       <use x="287.205078" xlink:href="#ArialMT-114"/>
       <use x="320.505859" xlink:href="#ArialMT-105"/>
       <use x="342.722656" xlink:href="#ArialMT-97"/>
       <use x="398.337891" xlink:href="#ArialMT-110"/>
       <use x="453.953125" xlink:href="#ArialMT-116"/>
       <use x="481.736328" xlink:href="#ArialMT-115"/>
       <use x="531.736328" xlink:href="#ArialMT-32"/>
       <use x="559.519531" xlink:href="#ArialMT-98"/>
       <use x="615.134766" xlink:href="#ArialMT-105"/>
       <use x="637.351562" xlink:href="#ArialMT-97"/>
       <use x="692.966797" xlink:href="#ArialMT-115"/>
       <use x="742.966797" xlink:href="#ArialMT-101"/>
       <use x="798.582031" xlink:href="#ArialMT-100"/>
      </g>
     </g>
    </g>
    <g id="ytick_4">
     <g id="text_4">
      <!-- T4. Behavior-based -->
      <g style="fill:#262626;" transform="translate(54.135781 122.336797)scale(0.11 -0.11)">
       <defs>
        <path d="M 32.328125 0 
L 32.328125 17.140625 
L 1.265625 17.140625 
L 1.265625 25.203125 
L 33.9375 71.578125 
L 41.109375 71.578125 
L 41.109375 25.203125 
L 50.78125 25.203125 
L 50.78125 17.140625 
L 41.109375 17.140625 
L 41.109375 0 
z
M 32.328125 25.203125 
L 32.328125 57.46875 
L 9.90625 25.203125 
z
" id="ArialMT-52"/>
        <path d="M 7.328125 0 
L 7.328125 71.578125 
L 34.1875 71.578125 
Q 42.390625 71.578125 47.34375 69.40625 
Q 52.296875 67.234375 55.09375 62.71875 
Q 57.90625 58.203125 57.90625 53.265625 
Q 57.90625 48.6875 55.421875 44.625 
Q 52.9375 40.578125 47.90625 38.09375 
Q 54.390625 36.1875 57.875 31.59375 
Q 61.375 27 61.375 20.75 
Q 61.375 15.71875 59.25 11.390625 
Q 57.125 7.078125 54 4.734375 
Q 50.875 2.390625 46.15625 1.1875 
Q 41.453125 0 34.625 0 
z
M 16.796875 41.5 
L 32.28125 41.5 
Q 38.578125 41.5 41.3125 42.328125 
Q 44.921875 43.40625 46.75 45.890625 
Q 48.578125 48.390625 48.578125 52.15625 
Q 48.578125 55.71875 46.875 58.421875 
Q 45.171875 61.140625 41.984375 62.140625 
Q 38.8125 63.140625 31.109375 63.140625 
L 16.796875 63.140625 
z
M 16.796875 8.453125 
L 34.625 8.453125 
Q 39.203125 8.453125 41.0625 8.796875 
Q 44.34375 9.375 46.53125 10.734375 
Q 48.734375 12.109375 50.140625 14.71875 
Q 51.5625 17.328125 51.5625 20.75 
Q 51.5625 24.75 49.515625 27.703125 
Q 47.46875 30.671875 43.828125 31.859375 
Q 40.1875 33.0625 33.34375 33.0625 
L 16.796875 33.0625 
z
" id="ArialMT-66"/>
        <path d="M 6.59375 0 
L 6.59375 71.578125 
L 15.375 71.578125 
L 15.375 45.90625 
Q 21.53125 53.03125 30.90625 53.03125 
Q 36.671875 53.03125 40.921875 50.75 
Q 45.171875 48.484375 47 44.484375 
Q 48.828125 40.484375 48.828125 32.859375 
L 48.828125 0 
L 40.046875 0 
L 40.046875 32.859375 
Q 40.046875 39.453125 37.1875 42.453125 
Q 34.328125 45.453125 29.109375 45.453125 
Q 25.203125 45.453125 21.75 43.421875 
Q 18.3125 41.40625 16.84375 37.9375 
Q 15.375 34.46875 15.375 28.375 
L 15.375 0 
z
" id="ArialMT-104"/>
        <path d="M 21 0 
L 1.265625 51.859375 
L 10.546875 51.859375 
L 21.6875 20.796875 
Q 23.484375 15.765625 25 10.359375 
Q 26.171875 14.453125 28.265625 20.21875 
L 39.796875 51.859375 
L 48.828125 51.859375 
L 29.203125 0 
z
" id="ArialMT-118"/>
        <path d="M 3.171875 21.484375 
L 3.171875 30.328125 
L 30.171875 30.328125 
L 30.171875 21.484375 
z
" id="ArialMT-45"/>
       </defs>
       <use xlink:href="#ArialMT-84"/>
       <use x="61.083984" xlink:href="#ArialMT-52"/>
       <use x="116.699219" xlink:href="#ArialMT-46"/>
       <use x="144.482422" xlink:href="#ArialMT-32"/>
       <use x="172.265625" xlink:href="#ArialMT-66"/>
       <use x="238.964844" xlink:href="#ArialMT-101"/>
       <use x="294.580078" xlink:href="#ArialMT-104"/>
       <use x="350.195312" xlink:href="#ArialMT-97"/>
       <use x="405.810547" xlink:href="#ArialMT-118"/>
       <use x="455.810547" xlink:href="#ArialMT-105"/>
       <use x="478.027344" xlink:href="#ArialMT-111"/>
       <use x="533.642578" xlink:href="#ArialMT-114"/>
       <use x="566.943359" xlink:href="#ArialMT-45"/>
       <use x="600.244141" xlink:href="#ArialMT-98"/>
       <use x="655.859375" xlink:href="#ArialMT-97"/>
       <use x="711.474609" xlink:href="#ArialMT-115"/>
       <use x="761.474609" xlink:href="#ArialMT-101"/>
       <use x="817.089844" xlink:href="#ArialMT-100"/>
      </g>
     </g>
    </g>
    <g id="ytick_5">
     <g id="text_5">
      <!-- T5. LogRank -->
      <g style="fill:#262626;" transform="translate(87.149531 150.816797)scale(0.11 -0.11)">
       <defs>
        <path d="M 4.15625 18.75 
L 13.375 19.53125 
Q 14.40625 12.796875 18.140625 9.390625 
Q 21.875 6 27.15625 6 
Q 33.5 6 37.890625 10.78125 
Q 42.28125 15.578125 42.28125 23.484375 
Q 42.28125 31 38.0625 35.34375 
Q 33.84375 39.703125 27 39.703125 
Q 22.75 39.703125 19.328125 37.765625 
Q 15.921875 35.84375 13.96875 32.765625 
L 5.71875 33.84375 
L 12.640625 70.609375 
L 48.25 70.609375 
L 48.25 62.203125 
L 19.671875 62.203125 
L 15.828125 42.96875 
Q 22.265625 47.46875 29.34375 47.46875 
Q 38.71875 47.46875 45.15625 40.96875 
Q 51.609375 34.46875 51.609375 24.265625 
Q 51.609375 14.546875 45.953125 7.46875 
Q 39.0625 -1.21875 27.15625 -1.21875 
Q 17.390625 -1.21875 11.203125 4.25 
Q 5.03125 9.71875 4.15625 18.75 
z
" id="ArialMT-53"/>
        <path d="M 7.328125 0 
L 7.328125 71.578125 
L 16.796875 71.578125 
L 16.796875 8.453125 
L 52.046875 8.453125 
L 52.046875 0 
z
" id="ArialMT-76"/>
        <path d="M 4.984375 -4.296875 
L 13.53125 -5.5625 
Q 14.0625 -9.515625 16.5 -11.328125 
Q 19.78125 -13.765625 25.4375 -13.765625 
Q 31.546875 -13.765625 34.859375 -11.328125 
Q 38.1875 -8.890625 39.359375 -4.5 
Q 40.046875 -1.8125 39.984375 6.78125 
Q 34.234375 0 25.640625 0 
Q 14.9375 0 9.078125 7.71875 
Q 3.21875 15.4375 3.21875 26.21875 
Q 3.21875 33.640625 5.90625 39.90625 
Q 8.59375 46.1875 13.6875 49.609375 
Q 18.796875 53.03125 25.6875 53.03125 
Q 34.859375 53.03125 40.828125 45.609375 
L 40.828125 51.859375 
L 48.921875 51.859375 
L 48.921875 7.03125 
Q 48.921875 -5.078125 46.453125 -10.125 
Q 44 -15.1875 38.640625 -18.109375 
Q 33.296875 -21.046875 25.484375 -21.046875 
Q 16.21875 -21.046875 10.5 -16.875 
Q 4.78125 -12.703125 4.984375 -4.296875 
z
M 12.25 26.859375 
Q 12.25 16.65625 16.296875 11.96875 
Q 20.359375 7.28125 26.46875 7.28125 
Q 32.515625 7.28125 36.609375 11.9375 
Q 40.71875 16.609375 40.71875 26.5625 
Q 40.71875 36.078125 36.5 40.90625 
Q 32.28125 45.75 26.3125 45.75 
Q 20.453125 45.75 16.34375 40.984375 
Q 12.25 36.234375 12.25 26.859375 
z
" id="ArialMT-103"/>
        <path d="M 6.640625 0 
L 6.640625 71.578125 
L 15.4375 71.578125 
L 15.4375 30.765625 
L 36.234375 51.859375 
L 47.609375 51.859375 
L 27.78125 32.625 
L 49.609375 0 
L 38.765625 0 
L 21.625 26.515625 
L 15.4375 20.5625 
L 15.4375 0 
z
" id="ArialMT-107"/>
       </defs>
       <use xlink:href="#ArialMT-84"/>
       <use x="61.083984" xlink:href="#ArialMT-53"/>
       <use x="116.699219" xlink:href="#ArialMT-46"/>
       <use x="144.482422" xlink:href="#ArialMT-32"/>
       <use x="172.265625" xlink:href="#ArialMT-76"/>
       <use x="227.880859" xlink:href="#ArialMT-111"/>
       <use x="283.496094" xlink:href="#ArialMT-103"/>
       <use x="339.111328" xlink:href="#ArialMT-82"/>
       <use x="411.328125" xlink:href="#ArialMT-97"/>
       <use x="466.943359" xlink:href="#ArialMT-110"/>
       <use x="522.558594" xlink:href="#ArialMT-107"/>
      </g>
     </g>
    </g>
    <g id="ytick_6">
     <g id="text_6">
      <!-- T6. Redundancy check -->
      <g style="fill:#262626;" transform="translate(37.625469 179.313125)scale(0.11 -0.11)">
       <defs>
        <path d="M 49.75 54.046875 
L 41.015625 53.375 
Q 39.84375 58.546875 37.703125 60.890625 
Q 34.125 64.65625 28.90625 64.65625 
Q 24.703125 64.65625 21.53125 62.3125 
Q 17.390625 59.28125 14.984375 53.46875 
Q 12.59375 47.65625 12.5 36.921875 
Q 15.671875 41.75 20.265625 44.09375 
Q 24.859375 46.4375 29.890625 46.4375 
Q 38.671875 46.4375 44.84375 39.96875 
Q 51.03125 33.5 51.03125 23.25 
Q 51.03125 16.5 48.125 10.71875 
Q 45.21875 4.9375 40.140625 1.859375 
Q 35.0625 -1.21875 28.609375 -1.21875 
Q 17.625 -1.21875 10.6875 6.859375 
Q 3.765625 14.9375 3.765625 33.5 
Q 3.765625 54.25 11.421875 63.671875 
Q 18.109375 71.875 29.4375 71.875 
Q 37.890625 71.875 43.28125 67.140625 
Q 48.6875 62.40625 49.75 54.046875 
z
M 13.875 23.1875 
Q 13.875 18.65625 15.796875 14.5 
Q 17.71875 10.359375 21.1875 8.171875 
Q 24.65625 6 28.46875 6 
Q 34.03125 6 38.03125 10.484375 
Q 42.046875 14.984375 42.046875 22.703125 
Q 42.046875 30.125 38.078125 34.390625 
Q 34.125 38.671875 28.125 38.671875 
Q 22.171875 38.671875 18.015625 34.390625 
Q 13.875 30.125 13.875 23.1875 
z
" id="ArialMT-54"/>
        <path d="M 40.578125 0 
L 40.578125 7.625 
Q 34.515625 -1.171875 24.125 -1.171875 
Q 19.53125 -1.171875 15.546875 0.578125 
Q 11.578125 2.34375 9.640625 5 
Q 7.71875 7.671875 6.9375 11.53125 
Q 6.390625 14.109375 6.390625 19.734375 
L 6.390625 51.859375 
L 15.1875 51.859375 
L 15.1875 23.09375 
Q 15.1875 16.21875 15.71875 13.8125 
Q 16.546875 10.359375 19.234375 8.375 
Q 21.921875 6.390625 25.875 6.390625 
Q 29.828125 6.390625 33.296875 8.421875 
Q 36.765625 10.453125 38.203125 13.9375 
Q 39.65625 17.4375 39.65625 24.078125 
L 39.65625 51.859375 
L 48.4375 51.859375 
L 48.4375 0 
z
" id="ArialMT-117"/>
        <path d="M 40.4375 19 
L 49.078125 17.875 
Q 47.65625 8.9375 41.8125 3.875 
Q 35.984375 -1.171875 27.484375 -1.171875 
Q 16.84375 -1.171875 10.375 5.78125 
Q 3.90625 12.75 3.90625 25.734375 
Q 3.90625 34.125 6.6875 40.421875 
Q 9.46875 46.734375 15.15625 49.875 
Q 20.84375 53.03125 27.546875 53.03125 
Q 35.984375 53.03125 41.359375 48.75 
Q 46.734375 44.484375 48.25 36.625 
L 39.703125 35.296875 
Q 38.484375 40.53125 35.375 43.15625 
Q 32.28125 45.796875 27.875 45.796875 
Q 21.234375 45.796875 17.078125 41.03125 
Q 12.9375 36.28125 12.9375 25.984375 
Q 12.9375 15.53125 16.9375 10.796875 
Q 20.953125 6.0625 27.390625 6.0625 
Q 32.5625 6.0625 36.03125 9.234375 
Q 39.5 12.40625 40.4375 19 
z
" id="ArialMT-99"/>
        <path d="M 6.203125 -19.96875 
L 5.21875 -11.71875 
Q 8.109375 -12.5 10.25 -12.5 
Q 13.1875 -12.5 14.9375 -11.515625 
Q 16.703125 -10.546875 17.828125 -8.796875 
Q 18.65625 -7.46875 20.515625 -2.25 
Q 20.75 -1.515625 21.296875 -0.09375 
L 1.609375 51.859375 
L 11.078125 51.859375 
L 21.875 21.828125 
Q 23.96875 16.109375 25.640625 9.8125 
Q 27.15625 15.875 29.25 21.625 
L 40.328125 51.859375 
L 49.125 51.859375 
L 29.390625 -0.875 
Q 26.21875 -9.421875 24.46875 -12.640625 
Q 22.125 -17 19.09375 -19.015625 
Q 16.0625 -21.046875 11.859375 -21.046875 
Q 9.328125 -21.046875 6.203125 -19.96875 
z
" id="ArialMT-121"/>
       </defs>
       <use xlink:href="#ArialMT-84"/>
       <use x="61.083984" xlink:href="#ArialMT-54"/>
       <use x="116.699219" xlink:href="#ArialMT-46"/>
       <use x="144.482422" xlink:href="#ArialMT-32"/>
       <use x="172.265625" xlink:href="#ArialMT-82"/>
       <use x="244.482422" xlink:href="#ArialMT-101"/>
       <use x="300.097656" xlink:href="#ArialMT-100"/>
       <use x="355.712891" xlink:href="#ArialMT-117"/>
       <use x="411.328125" xlink:href="#ArialMT-110"/>
       <use x="466.943359" xlink:href="#ArialMT-100"/>
       <use x="522.558594" xlink:href="#ArialMT-97"/>
       <use x="578.173828" xlink:href="#ArialMT-110"/>
       <use x="633.789062" xlink:href="#ArialMT-99"/>
       <use x="683.789062" xlink:href="#ArialMT-121"/>
       <use x="733.789062" xlink:href="#ArialMT-32"/>
       <use x="761.572266" xlink:href="#ArialMT-99"/>
       <use x="811.572266" xlink:href="#ArialMT-104"/>
       <use x="867.1875" xlink:href="#ArialMT-101"/>
       <use x="922.802734" xlink:href="#ArialMT-99"/>
       <use x="972.802734" xlink:href="#ArialMT-107"/>
      </g>
     </g>
    </g>
    <g id="ytick_7">
     <g id="text_7">
      <!-- T7. Iterative c-min -->
      <g style="fill:#262626;" transform="translate(62.110781 207.776797)scale(0.11 -0.11)">
       <defs>
        <path d="M 4.734375 62.203125 
L 4.734375 70.65625 
L 51.078125 70.65625 
L 51.078125 63.8125 
Q 44.234375 56.546875 37.515625 44.484375 
Q 30.8125 32.421875 27.15625 19.671875 
Q 24.515625 10.6875 23.78125 0 
L 14.75 0 
Q 14.890625 8.453125 18.0625 20.40625 
Q 21.234375 32.375 27.171875 43.484375 
Q 33.109375 54.59375 39.796875 62.203125 
z
" id="ArialMT-55"/>
        <path d="M 9.328125 0 
L 9.328125 71.578125 
L 18.796875 71.578125 
L 18.796875 0 
z
" id="ArialMT-73"/>
       </defs>
       <use xlink:href="#ArialMT-84"/>
       <use x="61.083984" xlink:href="#ArialMT-55"/>
       <use x="116.699219" xlink:href="#ArialMT-46"/>
       <use x="144.482422" xlink:href="#ArialMT-32"/>
       <use x="172.265625" xlink:href="#ArialMT-73"/>
       <use x="200.048828" xlink:href="#ArialMT-116"/>
       <use x="227.832031" xlink:href="#ArialMT-101"/>
       <use x="283.447266" xlink:href="#ArialMT-114"/>
       <use x="316.748047" xlink:href="#ArialMT-97"/>
       <use x="372.363281" xlink:href="#ArialMT-116"/>
       <use x="400.146484" xlink:href="#ArialMT-105"/>
       <use x="422.363281" xlink:href="#ArialMT-118"/>
       <use x="472.363281" xlink:href="#ArialMT-101"/>
       <use x="527.978516" xlink:href="#ArialMT-32"/>
       <use x="555.761719" xlink:href="#ArialMT-99"/>
       <use x="605.761719" xlink:href="#ArialMT-45"/>
       <use x="639.0625" xlink:href="#ArialMT-109"/>
       <use x="722.363281" xlink:href="#ArialMT-105"/>
       <use x="744.580078" xlink:href="#ArialMT-110"/>
      </g>
     </g>
    </g>
    <g id="ytick_8">
     <g id="text_8">
      <!-- T8. Iterative c-min (EOR) -->
      <g style="fill:#262626;" transform="translate(27.892187 236.327266)scale(0.11 -0.11)">
       <defs>
        <path d="M 17.671875 38.8125 
Q 12.203125 40.828125 9.5625 44.53125 
Q 6.9375 48.25 6.9375 53.421875 
Q 6.9375 61.234375 12.546875 66.546875 
Q 18.171875 71.875 27.484375 71.875 
Q 36.859375 71.875 42.578125 66.421875 
Q 48.296875 60.984375 48.296875 53.171875 
Q 48.296875 48.1875 45.671875 44.5 
Q 43.0625 40.828125 37.75 38.8125 
Q 44.34375 36.671875 47.78125 31.875 
Q 51.21875 27.09375 51.21875 20.453125 
Q 51.21875 11.28125 44.71875 5.03125 
Q 38.234375 -1.21875 27.640625 -1.21875 
Q 17.046875 -1.21875 10.546875 5.046875 
Q 4.046875 11.328125 4.046875 20.703125 
Q 4.046875 27.6875 7.59375 32.390625 
Q 11.140625 37.109375 17.671875 38.8125 
z
M 15.921875 53.71875 
Q 15.921875 48.640625 19.1875 45.40625 
Q 22.46875 42.1875 27.6875 42.1875 
Q 32.765625 42.1875 36.015625 45.375 
Q 39.265625 48.578125 39.265625 53.21875 
Q 39.265625 58.0625 35.90625 61.359375 
Q 32.5625 64.65625 27.59375 64.65625 
Q 22.5625 64.65625 19.234375 61.421875 
Q 15.921875 58.203125 15.921875 53.71875 
z
M 13.09375 20.65625 
Q 13.09375 16.890625 14.875 13.375 
Q 16.65625 9.859375 20.171875 7.921875 
Q 23.6875 6 27.734375 6 
Q 34.03125 6 38.125 10.046875 
Q 42.234375 14.109375 42.234375 20.359375 
Q 42.234375 26.703125 38.015625 30.859375 
Q 33.796875 35.015625 27.4375 35.015625 
Q 21.234375 35.015625 17.15625 30.90625 
Q 13.09375 26.8125 13.09375 20.65625 
z
" id="ArialMT-56"/>
        <path d="M 23.390625 -21.046875 
Q 16.109375 -11.859375 11.078125 0.4375 
Q 6.0625 12.75 6.0625 25.921875 
Q 6.0625 37.546875 9.8125 48.1875 
Q 14.203125 60.546875 23.390625 72.796875 
L 29.6875 72.796875 
Q 23.78125 62.640625 21.875 58.296875 
Q 18.890625 51.5625 17.1875 44.234375 
Q 15.09375 35.109375 15.09375 25.875 
Q 15.09375 2.390625 29.6875 -21.046875 
z
" id="ArialMT-40"/>
        <path d="M 7.90625 0 
L 7.90625 71.578125 
L 59.671875 71.578125 
L 59.671875 63.140625 
L 17.390625 63.140625 
L 17.390625 41.21875 
L 56.984375 41.21875 
L 56.984375 32.8125 
L 17.390625 32.8125 
L 17.390625 8.453125 
L 61.328125 8.453125 
L 61.328125 0 
z
" id="ArialMT-69"/>
        <path d="M 4.828125 34.859375 
Q 4.828125 52.6875 14.390625 62.765625 
Q 23.96875 72.859375 39.109375 72.859375 
Q 49.03125 72.859375 56.984375 68.109375 
Q 64.9375 63.375 69.109375 54.90625 
Q 73.296875 46.4375 73.296875 35.6875 
Q 73.296875 24.8125 68.890625 16.21875 
Q 64.5 7.625 56.4375 3.203125 
Q 48.390625 -1.21875 39.0625 -1.21875 
Q 28.953125 -1.21875 20.984375 3.65625 
Q 13.03125 8.546875 8.921875 16.984375 
Q 4.828125 25.4375 4.828125 34.859375 
z
M 14.59375 34.71875 
Q 14.59375 21.78125 21.546875 14.328125 
Q 28.515625 6.890625 39.015625 6.890625 
Q 49.703125 6.890625 56.609375 14.40625 
Q 63.53125 21.921875 63.53125 35.75 
Q 63.53125 44.484375 60.578125 51 
Q 57.625 57.515625 51.921875 61.109375 
Q 46.234375 64.703125 39.15625 64.703125 
Q 29.109375 64.703125 21.84375 57.78125 
Q 14.59375 50.875 14.59375 34.71875 
z
" id="ArialMT-79"/>
        <path d="M 12.359375 -21.046875 
L 6.0625 -21.046875 
Q 20.65625 2.390625 20.65625 25.875 
Q 20.65625 35.0625 18.5625 44.09375 
Q 16.890625 51.421875 13.921875 58.15625 
Q 12.015625 62.546875 6.0625 72.796875 
L 12.359375 72.796875 
Q 21.53125 60.546875 25.921875 48.1875 
Q 29.6875 37.546875 29.6875 25.921875 
Q 29.6875 12.75 24.625 0.4375 
Q 19.578125 -11.859375 12.359375 -21.046875 
z
" id="ArialMT-41"/>
       </defs>
       <use xlink:href="#ArialMT-84"/>
       <use x="61.083984" xlink:href="#ArialMT-56"/>
       <use x="116.699219" xlink:href="#ArialMT-46"/>
       <use x="144.482422" xlink:href="#ArialMT-32"/>
       <use x="172.265625" xlink:href="#ArialMT-73"/>
       <use x="200.048828" xlink:href="#ArialMT-116"/>
       <use x="227.832031" xlink:href="#ArialMT-101"/>
       <use x="283.447266" xlink:href="#ArialMT-114"/>
       <use x="316.748047" xlink:href="#ArialMT-97"/>
       <use x="372.363281" xlink:href="#ArialMT-116"/>
       <use x="400.146484" xlink:href="#ArialMT-105"/>
       <use x="422.363281" xlink:href="#ArialMT-118"/>
       <use x="472.363281" xlink:href="#ArialMT-101"/>
       <use x="527.978516" xlink:href="#ArialMT-32"/>
       <use x="555.761719" xlink:href="#ArialMT-99"/>
       <use x="605.761719" xlink:href="#ArialMT-45"/>
       <use x="639.0625" xlink:href="#ArialMT-109"/>
       <use x="722.363281" xlink:href="#ArialMT-105"/>
       <use x="744.580078" xlink:href="#ArialMT-110"/>
       <use x="800.195312" xlink:href="#ArialMT-32"/>
       <use x="827.978516" xlink:href="#ArialMT-40"/>
       <use x="861.279297" xlink:href="#ArialMT-69"/>
       <use x="927.978516" xlink:href="#ArialMT-79"/>
       <use x="1005.761719" xlink:href="#ArialMT-82"/>
       <use x="1077.978516" xlink:href="#ArialMT-41"/>
      </g>
     </g>
    </g>
    <g id="ytick_9">
     <g id="text_9">
      <!-- T9. Iterative c-min (Eucl.) -->
      <g style="fill:#262626;" transform="translate(27.275156 264.803828)scale(0.11 -0.11)">
       <defs>
        <path d="M 5.46875 16.546875 
L 13.921875 17.328125 
Q 14.984375 11.375 18.015625 8.6875 
Q 21.046875 6 25.78125 6 
Q 29.828125 6 32.875 7.859375 
Q 35.9375 9.71875 37.890625 12.8125 
Q 39.84375 15.921875 41.15625 21.1875 
Q 42.484375 26.46875 42.484375 31.9375 
Q 42.484375 32.515625 42.4375 33.6875 
Q 39.796875 29.5 35.234375 26.875 
Q 30.671875 24.265625 25.34375 24.265625 
Q 16.453125 24.265625 10.296875 30.703125 
Q 4.15625 37.15625 4.15625 47.703125 
Q 4.15625 58.59375 10.578125 65.234375 
Q 17 71.875 26.65625 71.875 
Q 33.640625 71.875 39.421875 68.109375 
Q 45.21875 64.359375 48.21875 57.390625 
Q 51.21875 50.4375 51.21875 37.25 
Q 51.21875 23.53125 48.234375 15.40625 
Q 45.265625 7.28125 39.375 3.03125 
Q 33.5 -1.21875 25.59375 -1.21875 
Q 17.1875 -1.21875 11.859375 3.4375 
Q 6.546875 8.109375 5.46875 16.546875 
z
M 41.453125 48.140625 
Q 41.453125 55.71875 37.421875 60.15625 
Q 33.40625 64.59375 27.734375 64.59375 
Q 21.875 64.59375 17.53125 59.8125 
Q 13.1875 55.03125 13.1875 47.40625 
Q 13.1875 40.578125 17.3125 36.296875 
Q 21.4375 32.03125 27.484375 32.03125 
Q 33.59375 32.03125 37.515625 36.296875 
Q 41.453125 40.578125 41.453125 48.140625 
z
" id="ArialMT-57"/>
        <path d="M 6.390625 0 
L 6.390625 71.578125 
L 15.1875 71.578125 
L 15.1875 0 
z
" id="ArialMT-108"/>
       </defs>
       <use xlink:href="#ArialMT-84"/>
       <use x="61.083984" xlink:href="#ArialMT-57"/>
       <use x="116.699219" xlink:href="#ArialMT-46"/>
       <use x="144.482422" xlink:href="#ArialMT-32"/>
       <use x="172.265625" xlink:href="#ArialMT-73"/>
       <use x="200.048828" xlink:href="#ArialMT-116"/>
       <use x="227.832031" xlink:href="#ArialMT-101"/>
       <use x="283.447266" xlink:href="#ArialMT-114"/>
       <use x="316.748047" xlink:href="#ArialMT-97"/>
       <use x="372.363281" xlink:href="#ArialMT-116"/>
       <use x="400.146484" xlink:href="#ArialMT-105"/>
       <use x="422.363281" xlink:href="#ArialMT-118"/>
       <use x="472.363281" xlink:href="#ArialMT-101"/>
       <use x="527.978516" xlink:href="#ArialMT-32"/>
       <use x="555.761719" xlink:href="#ArialMT-99"/>
       <use x="605.761719" xlink:href="#ArialMT-45"/>
       <use x="639.0625" xlink:href="#ArialMT-109"/>
       <use x="722.363281" xlink:href="#ArialMT-105"/>
       <use x="744.580078" xlink:href="#ArialMT-110"/>
       <use x="800.195312" xlink:href="#ArialMT-32"/>
       <use x="827.978516" xlink:href="#ArialMT-40"/>
       <use x="861.279297" xlink:href="#ArialMT-69"/>
       <use x="927.978516" xlink:href="#ArialMT-117"/>
       <use x="983.59375" xlink:href="#ArialMT-99"/>
       <use x="1033.59375" xlink:href="#ArialMT-108"/>
       <use x="1055.810547" xlink:href="#ArialMT-46"/>
       <use x="1083.59375" xlink:href="#ArialMT-41"/>
      </g>
     </g>
    </g>
    <g id="text_10">
     <!-- technique -->
     <g style="fill:#262626;" transform="translate(20.890156 172.899375)rotate(-90)scale(0.12 -0.12)">
      <defs>
       <path d="M 39.65625 -19.875 
L 39.65625 5.515625 
Q 37.59375 2.640625 33.90625 0.734375 
Q 30.21875 -1.171875 26.078125 -1.171875 
Q 16.84375 -1.171875 10.171875 6.203125 
Q 3.515625 13.578125 3.515625 26.421875 
Q 3.515625 34.234375 6.21875 40.421875 
Q 8.9375 46.625 14.078125 49.828125 
Q 19.234375 53.03125 25.390625 53.03125 
Q 35.015625 53.03125 40.53125 44.921875 
L 40.53125 51.859375 
L 48.4375 51.859375 
L 48.4375 -19.875 
z
M 12.546875 26.078125 
Q 12.546875 16.0625 16.75 11.0625 
Q 20.953125 6.0625 26.8125 6.0625 
Q 32.421875 6.0625 36.46875 10.8125 
Q 40.53125 15.578125 40.53125 25.296875 
Q 40.53125 35.640625 36.25 40.859375 
Q 31.984375 46.09375 26.21875 46.09375 
Q 20.515625 46.09375 16.53125 41.234375 
Q 12.546875 36.375 12.546875 26.078125 
z
" id="ArialMT-113"/>
      </defs>
      <use xlink:href="#ArialMT-116"/>
      <use x="27.783203" xlink:href="#ArialMT-101"/>
      <use x="83.398438" xlink:href="#ArialMT-99"/>
      <use x="133.398438" xlink:href="#ArialMT-104"/>
      <use x="189.013672" xlink:href="#ArialMT-110"/>
      <use x="244.628906" xlink:href="#ArialMT-105"/>
      <use x="266.845703" xlink:href="#ArialMT-113"/>
      <use x="322.460938" xlink:href="#ArialMT-117"/>
      <use x="378.076172" xlink:href="#ArialMT-101"/>
     </g>
    </g>
   </g>
   <g id="patch_3">
    <path clip-path="url(#p4876d6c43d)" d="M 179.405305 21.568 
L 179.405305 44.352 
L 214.263258 44.352 
L 214.263258 21.568 
L 179.405305 21.568 
z
" style="fill:#ffffff;stroke:#000000;stroke-linejoin:miter;stroke-width:1.5;"/>
   </g>
   <g id="patch_4">
    <path clip-path="url(#p4876d6c43d)" d="M 179.927001 50.048 
L 179.927001 72.832 
L 214.313835 72.832 
L 214.313835 50.048 
L 179.927001 50.048 
z
" style="fill:#ffffff;stroke:#000000;stroke-linejoin:miter;stroke-width:1.5;"/>
   </g>
   <g id="patch_5">
    <path clip-path="url(#p4876d6c43d)" d="M 179.255871 78.528 
L 179.255871 101.312 
L 214.243715 101.312 
L 214.243715 78.528 
L 179.255871 78.528 
z
" style="fill:#ffffff;stroke:#000000;stroke-linejoin:miter;stroke-width:1.5;"/>
   </g>
   <g id="patch_6">
    <path clip-path="url(#p4876d6c43d)" d="M 182.637329 107.008 
L 182.637329 129.792 
L 214.989912 129.792 
L 214.989912 107.008 
L 182.637329 107.008 
z
" style="fill:#ffffff;stroke:#000000;stroke-linejoin:miter;stroke-width:1.5;"/>
   </g>
   <g id="patch_7">
    <path clip-path="url(#p4876d6c43d)" d="M 203.21447 135.488 
L 203.21447 158.272 
L 230.999433 158.272 
L 230.999433 135.488 
L 203.21447 135.488 
z
" style="fill:#ffffff;stroke:#000000;stroke-linejoin:miter;stroke-width:1.5;"/>
   </g>
   <g id="patch_8">
    <path clip-path="url(#p4876d6c43d)" d="M 208.215237 163.968 
L 208.215237 186.752 
L 262.662441 186.752 
L 262.662441 163.968 
L 208.215237 163.968 
z
" style="fill:#ffffff;stroke:#000000;stroke-linejoin:miter;stroke-width:1.5;"/>
   </g>
   <g id="patch_9">
    <path clip-path="url(#p4876d6c43d)" d="M 253.850361 192.448 
L 253.850361 215.232 
L 291.783987 215.232 
L 291.783987 192.448 
L 253.850361 192.448 
z
" style="fill:#ffffff;stroke:#000000;stroke-linejoin:miter;stroke-width:1.5;"/>
   </g>
   <g id="patch_10">
    <path clip-path="url(#p4876d6c43d)" d="M 215.99649 220.928 
L 215.99649 243.712 
L 268.673498 243.712 
L 268.673498 220.928 
L 215.99649 220.928 
z
" style="fill:#ffffff;stroke:#000000;stroke-linejoin:miter;stroke-width:1.5;"/>
   </g>
   <g id="patch_11">
    <path clip-path="url(#p4876d6c43d)" d="M 204.724453 249.408 
L 204.724453 272.192 
L 246.891144 272.192 
L 246.891144 249.408 
L 204.724453 249.408 
z
" style="fill:#ffffff;stroke:#000000;stroke-linejoin:miter;stroke-width:1.5;"/>
   </g>
   <g id="line2d_6">
    <path clip-path="url(#p4876d6c43d)" d="M 179.405305 32.96 
L 168.680779 32.96 
" style="fill:none;stroke:#000000;stroke-linecap:round;stroke-width:1.5;"/>
   </g>
   <g id="line2d_7">
    <path clip-path="url(#p4876d6c43d)" d="M 214.263258 32.96 
L 225.177152 32.96 
" style="fill:none;stroke:#000000;stroke-linecap:round;stroke-width:1.5;"/>
   </g>
   <g id="line2d_8">
    <path clip-path="url(#p4876d6c43d)" d="M 168.680779 27.264 
L 168.680779 38.656 
" style="fill:none;stroke:#000000;stroke-linecap:round;stroke-width:1.5;"/>
   </g>
   <g id="line2d_9">
    <path clip-path="url(#p4876d6c43d)" d="M 225.177152 27.264 
L 225.177152 38.656 
" style="fill:none;stroke:#000000;stroke-linecap:round;stroke-width:1.5;"/>
   </g>
   <g id="line2d_10">
    <defs>
     <path d="M -0 3.535534 
L 2.12132 0 
L -0 -3.535534 
L -2.12132 -0 
z
" id="m971b2b8fa0" style="stroke:#000000;stroke-linejoin:miter;"/>
    </defs>
    <g clip-path="url(#p4876d6c43d)">
     <use style="stroke:#000000;stroke-linejoin:miter;" x="262.165684" xlink:href="#m971b2b8fa0" y="32.96"/>
     <use style="stroke:#000000;stroke-linejoin:miter;" x="262.168807" xlink:href="#m971b2b8fa0" y="32.96"/>
     <use style="stroke:#000000;stroke-linejoin:miter;" x="262.163415" xlink:href="#m971b2b8fa0" y="32.96"/>
     <use style="stroke:#000000;stroke-linejoin:miter;" x="262.162988" xlink:href="#m971b2b8fa0" y="32.96"/>
     <use style="stroke:#000000;stroke-linejoin:miter;" x="262.16327" xlink:href="#m971b2b8fa0" y="32.96"/>
     <use style="stroke:#000000;stroke-linejoin:miter;" x="262.162846" xlink:href="#m971b2b8fa0" y="32.96"/>
     <use style="stroke:#000000;stroke-linejoin:miter;" x="262.162073" xlink:href="#m971b2b8fa0" y="32.96"/>
     <use style="stroke:#000000;stroke-linejoin:miter;" x="262.162346" xlink:href="#m971b2b8fa0" y="32.96"/>
     <use style="stroke:#000000;stroke-linejoin:miter;" x="285.617196" xlink:href="#m971b2b8fa0" y="32.96"/>
     <use style="stroke:#000000;stroke-linejoin:miter;" x="285.506123" xlink:href="#m971b2b8fa0" y="32.96"/>
     <use style="stroke:#000000;stroke-linejoin:miter;" x="285.506251" xlink:href="#m971b2b8fa0" y="32.96"/>
     <use style="stroke:#000000;stroke-linejoin:miter;" x="285.505926" xlink:href="#m971b2b8fa0" y="32.96"/>
     <use style="stroke:#000000;stroke-linejoin:miter;" x="285.506835" xlink:href="#m971b2b8fa0" y="32.96"/>
     <use style="stroke:#000000;stroke-linejoin:miter;" x="285.508464" xlink:href="#m971b2b8fa0" y="32.96"/>
     <use style="stroke:#000000;stroke-linejoin:miter;" x="285.508015" xlink:href="#m971b2b8fa0" y="32.96"/>
     <use style="stroke:#000000;stroke-linejoin:miter;" x="285.509928" xlink:href="#m971b2b8fa0" y="32.96"/>
    </g>
   </g>
   <g id="line2d_11">
    <path clip-path="url(#p4876d6c43d)" d="M 179.927001 61.44 
L 169.35171 61.44 
" style="fill:none;stroke:#000000;stroke-linecap:round;stroke-width:1.5;"/>
   </g>
   <g id="line2d_12">
    <path clip-path="url(#p4876d6c43d)" d="M 214.313835 61.44 
L 225.230574 61.44 
" style="fill:none;stroke:#000000;stroke-linecap:round;stroke-width:1.5;"/>
   </g>
   <g id="line2d_13">
    <path clip-path="url(#p4876d6c43d)" d="M 169.35171 55.744 
L 169.35171 67.136 
" style="fill:none;stroke:#000000;stroke-linecap:round;stroke-width:1.5;"/>
   </g>
   <g id="line2d_14">
    <path clip-path="url(#p4876d6c43d)" d="M 225.230574 55.744 
L 225.230574 67.136 
" style="fill:none;stroke:#000000;stroke-linecap:round;stroke-width:1.5;"/>
   </g>
   <g id="line2d_15">
    <g clip-path="url(#p4876d6c43d)">
     <use style="stroke:#000000;stroke-linejoin:miter;" x="262.167026" xlink:href="#m971b2b8fa0" y="61.44"/>
     <use style="stroke:#000000;stroke-linejoin:miter;" x="262.166976" xlink:href="#m971b2b8fa0" y="61.44"/>
     <use style="stroke:#000000;stroke-linejoin:miter;" x="262.168836" xlink:href="#m971b2b8fa0" y="61.44"/>
     <use style="stroke:#000000;stroke-linejoin:miter;" x="262.168466" xlink:href="#m971b2b8fa0" y="61.44"/>
     <use style="stroke:#000000;stroke-linejoin:miter;" x="262.170854" xlink:href="#m971b2b8fa0" y="61.44"/>
     <use style="stroke:#000000;stroke-linejoin:miter;" x="262.168649" xlink:href="#m971b2b8fa0" y="61.44"/>
     <use style="stroke:#000000;stroke-linejoin:miter;" x="262.168919" xlink:href="#m971b2b8fa0" y="61.44"/>
     <use style="stroke:#000000;stroke-linejoin:miter;" x="262.166294" xlink:href="#m971b2b8fa0" y="61.44"/>
     <use style="stroke:#000000;stroke-linejoin:miter;" x="285.512185" xlink:href="#m971b2b8fa0" y="61.44"/>
     <use style="stroke:#000000;stroke-linejoin:miter;" x="285.508417" xlink:href="#m971b2b8fa0" y="61.44"/>
     <use style="stroke:#000000;stroke-linejoin:miter;" x="285.509688" xlink:href="#m971b2b8fa0" y="61.44"/>
     <use style="stroke:#000000;stroke-linejoin:miter;" x="285.508218" xlink:href="#m971b2b8fa0" y="61.44"/>
     <use style="stroke:#000000;stroke-linejoin:miter;" x="285.509086" xlink:href="#m971b2b8fa0" y="61.44"/>
     <use style="stroke:#000000;stroke-linejoin:miter;" x="285.511675" xlink:href="#m971b2b8fa0" y="61.44"/>
     <use style="stroke:#000000;stroke-linejoin:miter;" x="285.519764" xlink:href="#m971b2b8fa0" y="61.44"/>
     <use style="stroke:#000000;stroke-linejoin:miter;" x="285.513575" xlink:href="#m971b2b8fa0" y="61.44"/>
    </g>
   </g>
   <g id="line2d_16">
    <path clip-path="url(#p4876d6c43d)" d="M 179.255871 89.92 
L 168.145057 89.92 
" style="fill:none;stroke:#000000;stroke-linecap:round;stroke-width:1.5;"/>
   </g>
   <g id="line2d_17">
    <path clip-path="url(#p4876d6c43d)" d="M 214.243715 89.92 
L 225.19369 89.92 
" style="fill:none;stroke:#000000;stroke-linecap:round;stroke-width:1.5;"/>
   </g>
   <g id="line2d_18">
    <path clip-path="url(#p4876d6c43d)" d="M 168.145057 84.224 
L 168.145057 95.616 
" style="fill:none;stroke:#000000;stroke-linecap:round;stroke-width:1.5;"/>
   </g>
   <g id="line2d_19">
    <path clip-path="url(#p4876d6c43d)" d="M 225.19369 84.224 
L 225.19369 95.616 
" style="fill:none;stroke:#000000;stroke-linecap:round;stroke-width:1.5;"/>
   </g>
   <g id="line2d_20">
    <g clip-path="url(#p4876d6c43d)">
     <use style="stroke:#000000;stroke-linejoin:miter;" x="262.167511" xlink:href="#m971b2b8fa0" y="89.92"/>
     <use style="stroke:#000000;stroke-linejoin:miter;" x="262.167838" xlink:href="#m971b2b8fa0" y="89.92"/>
     <use style="stroke:#000000;stroke-linejoin:miter;" x="262.167552" xlink:href="#m971b2b8fa0" y="89.92"/>
     <use style="stroke:#000000;stroke-linejoin:miter;" x="262.168728" xlink:href="#m971b2b8fa0" y="89.92"/>
     <use style="stroke:#000000;stroke-linejoin:miter;" x="262.169946" xlink:href="#m971b2b8fa0" y="89.92"/>
     <use style="stroke:#000000;stroke-linejoin:miter;" x="262.167557" xlink:href="#m971b2b8fa0" y="89.92"/>
     <use style="stroke:#000000;stroke-linejoin:miter;" x="262.169227" xlink:href="#m971b2b8fa0" y="89.92"/>
     <use style="stroke:#000000;stroke-linejoin:miter;" x="262.167568" xlink:href="#m971b2b8fa0" y="89.92"/>
     <use style="stroke:#000000;stroke-linejoin:miter;" x="285.510749" xlink:href="#m971b2b8fa0" y="89.92"/>
     <use style="stroke:#000000;stroke-linejoin:miter;" x="285.5106" xlink:href="#m971b2b8fa0" y="89.92"/>
     <use style="stroke:#000000;stroke-linejoin:miter;" x="285.511211" xlink:href="#m971b2b8fa0" y="89.92"/>
     <use style="stroke:#000000;stroke-linejoin:miter;" x="285.509532" xlink:href="#m971b2b8fa0" y="89.92"/>
     <use style="stroke:#000000;stroke-linejoin:miter;" x="285.509756" xlink:href="#m971b2b8fa0" y="89.92"/>
     <use style="stroke:#000000;stroke-linejoin:miter;" x="285.510736" xlink:href="#m971b2b8fa0" y="89.92"/>
     <use style="stroke:#000000;stroke-linejoin:miter;" x="285.514283" xlink:href="#m971b2b8fa0" y="89.92"/>
     <use style="stroke:#000000;stroke-linejoin:miter;" x="285.510045" xlink:href="#m971b2b8fa0" y="89.92"/>
    </g>
   </g>
   <g id="line2d_21">
    <path clip-path="url(#p4876d6c43d)" d="M 182.637329 118.4 
L 172.954287 118.4 
" style="fill:none;stroke:#000000;stroke-linecap:round;stroke-width:1.5;"/>
   </g>
   <g id="line2d_22">
    <path clip-path="url(#p4876d6c43d)" d="M 214.989912 118.4 
L 227.091841 118.4 
" style="fill:none;stroke:#000000;stroke-linecap:round;stroke-width:1.5;"/>
   </g>
   <g id="line2d_23">
    <path clip-path="url(#p4876d6c43d)" d="M 172.954287 112.704 
L 172.954287 124.096 
" style="fill:none;stroke:#000000;stroke-linecap:round;stroke-width:1.5;"/>
   </g>
   <g id="line2d_24">
    <path clip-path="url(#p4876d6c43d)" d="M 227.091841 112.704 
L 227.091841 124.096 
" style="fill:none;stroke:#000000;stroke-linecap:round;stroke-width:1.5;"/>
   </g>
   <g id="line2d_25">
    <g clip-path="url(#p4876d6c43d)">
     <use style="stroke:#000000;stroke-linejoin:miter;" x="262.556851" xlink:href="#m971b2b8fa0" y="118.4"/>
     <use style="stroke:#000000;stroke-linejoin:miter;" x="262.560002" xlink:href="#m971b2b8fa0" y="118.4"/>
     <use style="stroke:#000000;stroke-linejoin:miter;" x="262.651489" xlink:href="#m971b2b8fa0" y="118.4"/>
     <use style="stroke:#000000;stroke-linejoin:miter;" x="262.58966" xlink:href="#m971b2b8fa0" y="118.4"/>
     <use style="stroke:#000000;stroke-linejoin:miter;" x="262.556767" xlink:href="#m971b2b8fa0" y="118.4"/>
     <use style="stroke:#000000;stroke-linejoin:miter;" x="262.573327" xlink:href="#m971b2b8fa0" y="118.4"/>
     <use style="stroke:#000000;stroke-linejoin:miter;" x="262.666373" xlink:href="#m971b2b8fa0" y="118.4"/>
     <use style="stroke:#000000;stroke-linejoin:miter;" x="262.581912" xlink:href="#m971b2b8fa0" y="118.4"/>
     <use style="stroke:#000000;stroke-linejoin:miter;" x="285.818134" xlink:href="#m971b2b8fa0" y="118.4"/>
     <use style="stroke:#000000;stroke-linejoin:miter;" x="285.805124" xlink:href="#m971b2b8fa0" y="118.4"/>
     <use style="stroke:#000000;stroke-linejoin:miter;" x="285.810477" xlink:href="#m971b2b8fa0" y="118.4"/>
     <use style="stroke:#000000;stroke-linejoin:miter;" x="285.817797" xlink:href="#m971b2b8fa0" y="118.4"/>
     <use style="stroke:#000000;stroke-linejoin:miter;" x="285.84594" xlink:href="#m971b2b8fa0" y="118.4"/>
     <use style="stroke:#000000;stroke-linejoin:miter;" x="285.820943" xlink:href="#m971b2b8fa0" y="118.4"/>
     <use style="stroke:#000000;stroke-linejoin:miter;" x="285.804888" xlink:href="#m971b2b8fa0" y="118.4"/>
     <use style="stroke:#000000;stroke-linejoin:miter;" x="285.812639" xlink:href="#m971b2b8fa0" y="118.4"/>
    </g>
   </g>
   <g id="line2d_26">
    <path clip-path="url(#p4876d6c43d)" d="M 203.21447 146.88 
L 175.486211 146.88 
" style="fill:none;stroke:#000000;stroke-linecap:round;stroke-width:1.5;"/>
   </g>
   <g id="line2d_27">
    <path clip-path="url(#p4876d6c43d)" d="M 230.999433 146.88 
L 237.372142 146.88 
" style="fill:none;stroke:#000000;stroke-linecap:round;stroke-width:1.5;"/>
   </g>
   <g id="line2d_28">
    <path clip-path="url(#p4876d6c43d)" d="M 175.486211 141.184 
L 175.486211 152.576 
" style="fill:none;stroke:#000000;stroke-linecap:round;stroke-width:1.5;"/>
   </g>
   <g id="line2d_29">
    <path clip-path="url(#p4876d6c43d)" d="M 237.372142 141.184 
L 237.372142 152.576 
" style="fill:none;stroke:#000000;stroke-linecap:round;stroke-width:1.5;"/>
   </g>
   <g id="line2d_30">
    <g clip-path="url(#p4876d6c43d)">
     <use style="stroke:#000000;stroke-linejoin:miter;" x="259.440092" xlink:href="#m971b2b8fa0" y="146.88"/>
     <use style="stroke:#000000;stroke-linejoin:miter;" x="260.409319" xlink:href="#m971b2b8fa0" y="146.88"/>
     <use style="stroke:#000000;stroke-linejoin:miter;" x="259.351427" xlink:href="#m971b2b8fa0" y="146.88"/>
     <use style="stroke:#000000;stroke-linejoin:miter;" x="261.118731" xlink:href="#m971b2b8fa0" y="146.88"/>
     <use style="stroke:#000000;stroke-linejoin:miter;" x="263.25947" xlink:href="#m971b2b8fa0" y="146.88"/>
     <use style="stroke:#000000;stroke-linejoin:miter;" x="260.127874" xlink:href="#m971b2b8fa0" y="146.88"/>
     <use style="stroke:#000000;stroke-linejoin:miter;" x="261.665442" xlink:href="#m971b2b8fa0" y="146.88"/>
     <use style="stroke:#000000;stroke-linejoin:miter;" x="259.520825" xlink:href="#m971b2b8fa0" y="146.88"/>
     <use style="stroke:#000000;stroke-linejoin:miter;" x="314.956308" xlink:href="#m971b2b8fa0" y="146.88"/>
     <use style="stroke:#000000;stroke-linejoin:miter;" x="315.224404" xlink:href="#m971b2b8fa0" y="146.88"/>
     <use style="stroke:#000000;stroke-linejoin:miter;" x="315.060547" xlink:href="#m971b2b8fa0" y="146.88"/>
     <use style="stroke:#000000;stroke-linejoin:miter;" x="315.108562" xlink:href="#m971b2b8fa0" y="146.88"/>
     <use style="stroke:#000000;stroke-linejoin:miter;" x="315.156908" xlink:href="#m971b2b8fa0" y="146.88"/>
     <use style="stroke:#000000;stroke-linejoin:miter;" x="316.215581" xlink:href="#m971b2b8fa0" y="146.88"/>
     <use style="stroke:#000000;stroke-linejoin:miter;" x="315.710953" xlink:href="#m971b2b8fa0" y="146.88"/>
     <use style="stroke:#000000;stroke-linejoin:miter;" x="316.182396" xlink:href="#m971b2b8fa0" y="146.88"/>
     <use style="stroke:#000000;stroke-linejoin:miter;" x="333.13942" xlink:href="#m971b2b8fa0" y="146.88"/>
     <use style="stroke:#000000;stroke-linejoin:miter;" x="333.218737" xlink:href="#m971b2b8fa0" y="146.88"/>
     <use style="stroke:#000000;stroke-linejoin:miter;" x="332.930493" xlink:href="#m971b2b8fa0" y="146.88"/>
     <use style="stroke:#000000;stroke-linejoin:miter;" x="332.939001" xlink:href="#m971b2b8fa0" y="146.88"/>
     <use style="stroke:#000000;stroke-linejoin:miter;" x="333.163787" xlink:href="#m971b2b8fa0" y="146.88"/>
     <use style="stroke:#000000;stroke-linejoin:miter;" x="333.378542" xlink:href="#m971b2b8fa0" y="146.88"/>
     <use style="stroke:#000000;stroke-linejoin:miter;" x="332.507849" xlink:href="#m971b2b8fa0" y="146.88"/>
     <use style="stroke:#000000;stroke-linejoin:miter;" x="333.731545" xlink:href="#m971b2b8fa0" y="146.88"/>
    </g>
   </g>
   <g id="line2d_31">
    <path clip-path="url(#p4876d6c43d)" d="M 208.215237 175.36 
L 181.542099 175.36 
" style="fill:none;stroke:#000000;stroke-linecap:round;stroke-width:1.5;"/>
   </g>
   <g id="line2d_32">
    <path clip-path="url(#p4876d6c43d)" d="M 262.662441 175.36 
L 273.943481 175.36 
" style="fill:none;stroke:#000000;stroke-linecap:round;stroke-width:1.5;"/>
   </g>
   <g id="line2d_33">
    <path clip-path="url(#p4876d6c43d)" d="M 181.542099 169.664 
L 181.542099 181.056 
" style="fill:none;stroke:#000000;stroke-linecap:round;stroke-width:1.5;"/>
   </g>
   <g id="line2d_34">
    <path clip-path="url(#p4876d6c43d)" d="M 273.943481 169.664 
L 273.943481 181.056 
" style="fill:none;stroke:#000000;stroke-linecap:round;stroke-width:1.5;"/>
   </g>
   <g id="line2d_35">
    <g clip-path="url(#p4876d6c43d)">
     <use style="stroke:#000000;stroke-linejoin:miter;" x="302.745533" xlink:href="#m971b2b8fa0" y="175.36"/>
     <use style="stroke:#000000;stroke-linejoin:miter;" x="302.745743" xlink:href="#m971b2b8fa0" y="175.36"/>
     <use style="stroke:#000000;stroke-linejoin:miter;" x="302.728145" xlink:href="#m971b2b8fa0" y="175.36"/>
     <use style="stroke:#000000;stroke-linejoin:miter;" x="302.72489" xlink:href="#m971b2b8fa0" y="175.36"/>
     <use style="stroke:#000000;stroke-linejoin:miter;" x="302.723428" xlink:href="#m971b2b8fa0" y="175.36"/>
     <use style="stroke:#000000;stroke-linejoin:miter;" x="302.723729" xlink:href="#m971b2b8fa0" y="175.36"/>
     <use style="stroke:#000000;stroke-linejoin:miter;" x="302.739088" xlink:href="#m971b2b8fa0" y="175.36"/>
     <use style="stroke:#000000;stroke-linejoin:miter;" x="302.74977" xlink:href="#m971b2b8fa0" y="175.36"/>
    </g>
   </g>
   <g id="line2d_36">
    <path clip-path="url(#p4876d6c43d)" d="M 253.850361 203.84 
L 191.023893 203.84 
" style="fill:none;stroke:#000000;stroke-linecap:round;stroke-width:1.5;"/>
   </g>
   <g id="line2d_37">
    <path clip-path="url(#p4876d6c43d)" d="M 291.783987 203.84 
L 305.922909 203.84 
" style="fill:none;stroke:#000000;stroke-linecap:round;stroke-width:1.5;"/>
   </g>
   <g id="line2d_38">
    <path clip-path="url(#p4876d6c43d)" d="M 191.023893 198.144 
L 191.023893 209.536 
" style="fill:none;stroke:#000000;stroke-linecap:round;stroke-width:1.5;"/>
   </g>
   <g id="line2d_39">
    <path clip-path="url(#p4876d6c43d)" d="M 305.922909 198.144 
L 305.922909 209.536 
" style="fill:none;stroke:#000000;stroke-linecap:round;stroke-width:1.5;"/>
   </g>
   <g id="line2d_40">
    <g clip-path="url(#p4876d6c43d)">
     <use style="stroke:#000000;stroke-linejoin:miter;" x="308.306891" xlink:href="#m971b2b8fa0" y="203.84"/>
     <use style="stroke:#000000;stroke-linejoin:miter;" x="311.747494" xlink:href="#m971b2b8fa0" y="203.84"/>
     <use style="stroke:#000000;stroke-linejoin:miter;" x="318.516972" xlink:href="#m971b2b8fa0" y="203.84"/>
     <use style="stroke:#000000;stroke-linejoin:miter;" x="325.349894" xlink:href="#m971b2b8fa0" y="203.84"/>
     <use style="stroke:#000000;stroke-linejoin:miter;" x="330.618549" xlink:href="#m971b2b8fa0" y="203.84"/>
     <use style="stroke:#000000;stroke-linejoin:miter;" x="334.628236" xlink:href="#m971b2b8fa0" y="203.84"/>
     <use style="stroke:#000000;stroke-linejoin:miter;" x="338.521193" xlink:href="#m971b2b8fa0" y="203.84"/>
     <use style="stroke:#000000;stroke-linejoin:miter;" x="308.67733" xlink:href="#m971b2b8fa0" y="203.84"/>
     <use style="stroke:#000000;stroke-linejoin:miter;" x="315.053177" xlink:href="#m971b2b8fa0" y="203.84"/>
     <use style="stroke:#000000;stroke-linejoin:miter;" x="319.974313" xlink:href="#m971b2b8fa0" y="203.84"/>
     <use style="stroke:#000000;stroke-linejoin:miter;" x="310.356356" xlink:href="#m971b2b8fa0" y="203.84"/>
     <use style="stroke:#000000;stroke-linejoin:miter;" x="315.068141" xlink:href="#m971b2b8fa0" y="203.84"/>
     <use style="stroke:#000000;stroke-linejoin:miter;" x="312.568508" xlink:href="#m971b2b8fa0" y="203.84"/>
     <use style="stroke:#000000;stroke-linejoin:miter;" x="318.258125" xlink:href="#m971b2b8fa0" y="203.84"/>
     <use style="stroke:#000000;stroke-linejoin:miter;" x="307.938729" xlink:href="#m971b2b8fa0" y="203.84"/>
     <use style="stroke:#000000;stroke-linejoin:miter;" x="312.512791" xlink:href="#m971b2b8fa0" y="203.84"/>
     <use style="stroke:#000000;stroke-linejoin:miter;" x="308.115036" xlink:href="#m971b2b8fa0" y="203.84"/>
     <use style="stroke:#000000;stroke-linejoin:miter;" x="315.212939" xlink:href="#m971b2b8fa0" y="203.84"/>
     <use style="stroke:#000000;stroke-linejoin:miter;" x="320.457886" xlink:href="#m971b2b8fa0" y="203.84"/>
     <use style="stroke:#000000;stroke-linejoin:miter;" x="327.11047" xlink:href="#m971b2b8fa0" y="203.84"/>
     <use style="stroke:#000000;stroke-linejoin:miter;" x="331.717666" xlink:href="#m971b2b8fa0" y="203.84"/>
    </g>
   </g>
   <g id="line2d_41">
    <path clip-path="url(#p4876d6c43d)" d="M 215.99649 232.32 
L 184.759434 232.32 
" style="fill:none;stroke:#000000;stroke-linecap:round;stroke-width:1.5;"/>
   </g>
   <g id="line2d_42">
    <path clip-path="url(#p4876d6c43d)" d="M 268.673498 232.32 
L 282.709166 232.32 
" style="fill:none;stroke:#000000;stroke-linecap:round;stroke-width:1.5;"/>
   </g>
   <g id="line2d_43">
    <path clip-path="url(#p4876d6c43d)" d="M 184.759434 226.624 
L 184.759434 238.016 
" style="fill:none;stroke:#000000;stroke-linecap:round;stroke-width:1.5;"/>
   </g>
   <g id="line2d_44">
    <path clip-path="url(#p4876d6c43d)" d="M 282.709166 226.624 
L 282.709166 238.016 
" style="fill:none;stroke:#000000;stroke-linecap:round;stroke-width:1.5;"/>
   </g>
   <g id="line2d_45">
    <g clip-path="url(#p4876d6c43d)">
     <use style="stroke:#000000;stroke-linejoin:miter;" x="305.811437" xlink:href="#m971b2b8fa0" y="232.32"/>
     <use style="stroke:#000000;stroke-linejoin:miter;" x="305.859037" xlink:href="#m971b2b8fa0" y="232.32"/>
     <use style="stroke:#000000;stroke-linejoin:miter;" x="307.633567" xlink:href="#m971b2b8fa0" y="232.32"/>
     <use style="stroke:#000000;stroke-linejoin:miter;" x="309.477427" xlink:href="#m971b2b8fa0" y="232.32"/>
     <use style="stroke:#000000;stroke-linejoin:miter;" x="311.740364" xlink:href="#m971b2b8fa0" y="232.32"/>
     <use style="stroke:#000000;stroke-linejoin:miter;" x="312.59444" xlink:href="#m971b2b8fa0" y="232.32"/>
     <use style="stroke:#000000;stroke-linejoin:miter;" x="315.176989" xlink:href="#m971b2b8fa0" y="232.32"/>
     <use style="stroke:#000000;stroke-linejoin:miter;" x="316.542286" xlink:href="#m971b2b8fa0" y="232.32"/>
     <use style="stroke:#000000;stroke-linejoin:miter;" x="284.273508" xlink:href="#m971b2b8fa0" y="232.32"/>
     <use style="stroke:#000000;stroke-linejoin:miter;" x="285.897645" xlink:href="#m971b2b8fa0" y="232.32"/>
     <use style="stroke:#000000;stroke-linejoin:miter;" x="287.440147" xlink:href="#m971b2b8fa0" y="232.32"/>
     <use style="stroke:#000000;stroke-linejoin:miter;" x="284.202448" xlink:href="#m971b2b8fa0" y="232.32"/>
    </g>
   </g>
   <g id="line2d_46">
    <path clip-path="url(#p4876d6c43d)" d="M 204.724453 260.8 
L 176.273014 260.8 
" style="fill:none;stroke:#000000;stroke-linecap:round;stroke-width:1.5;"/>
   </g>
   <g id="line2d_47">
    <path clip-path="url(#p4876d6c43d)" d="M 246.891144 260.8 
L 252.865232 260.8 
" style="fill:none;stroke:#000000;stroke-linecap:round;stroke-width:1.5;"/>
   </g>
   <g id="line2d_48">
    <path clip-path="url(#p4876d6c43d)" d="M 176.273014 255.104 
L 176.273014 266.496 
" style="fill:none;stroke:#000000;stroke-linecap:round;stroke-width:1.5;"/>
   </g>
   <g id="line2d_49">
    <path clip-path="url(#p4876d6c43d)" d="M 252.865232 255.104 
L 252.865232 266.496 
" style="fill:none;stroke:#000000;stroke-linecap:round;stroke-width:1.5;"/>
   </g>
   <g id="line2d_50">
    <g clip-path="url(#p4876d6c43d)">
     <use style="stroke:#000000;stroke-linejoin:miter;" x="270.530489" xlink:href="#m971b2b8fa0" y="260.8"/>
     <use style="stroke:#000000;stroke-linejoin:miter;" x="266.27482" xlink:href="#m971b2b8fa0" y="260.8"/>
     <use style="stroke:#000000;stroke-linejoin:miter;" x="267.278841" xlink:href="#m971b2b8fa0" y="260.8"/>
     <use style="stroke:#000000;stroke-linejoin:miter;" x="270.915755" xlink:href="#m971b2b8fa0" y="260.8"/>
     <use style="stroke:#000000;stroke-linejoin:miter;" x="270.597745" xlink:href="#m971b2b8fa0" y="260.8"/>
     <use style="stroke:#000000;stroke-linejoin:miter;" x="270.113765" xlink:href="#m971b2b8fa0" y="260.8"/>
     <use style="stroke:#000000;stroke-linejoin:miter;" x="271.04166" xlink:href="#m971b2b8fa0" y="260.8"/>
     <use style="stroke:#000000;stroke-linejoin:miter;" x="273.638613" xlink:href="#m971b2b8fa0" y="260.8"/>
     <use style="stroke:#000000;stroke-linejoin:miter;" x="306.852697" xlink:href="#m971b2b8fa0" y="260.8"/>
     <use style="stroke:#000000;stroke-linejoin:miter;" x="307.439068" xlink:href="#m971b2b8fa0" y="260.8"/>
     <use style="stroke:#000000;stroke-linejoin:miter;" x="308.644135" xlink:href="#m971b2b8fa0" y="260.8"/>
     <use style="stroke:#000000;stroke-linejoin:miter;" x="313.563581" xlink:href="#m971b2b8fa0" y="260.8"/>
     <use style="stroke:#000000;stroke-linejoin:miter;" x="317.355802" xlink:href="#m971b2b8fa0" y="260.8"/>
     <use style="stroke:#000000;stroke-linejoin:miter;" x="320.285049" xlink:href="#m971b2b8fa0" y="260.8"/>
     <use style="stroke:#000000;stroke-linejoin:miter;" x="324.45199" xlink:href="#m971b2b8fa0" y="260.8"/>
     <use style="stroke:#000000;stroke-linejoin:miter;" x="326.423888" xlink:href="#m971b2b8fa0" y="260.8"/>
     <use style="stroke:#000000;stroke-linejoin:miter;" x="320.077775" xlink:href="#m971b2b8fa0" y="260.8"/>
     <use style="stroke:#000000;stroke-linejoin:miter;" x="320.766424" xlink:href="#m971b2b8fa0" y="260.8"/>
     <use style="stroke:#000000;stroke-linejoin:miter;" x="324.562012" xlink:href="#m971b2b8fa0" y="260.8"/>
     <use style="stroke:#000000;stroke-linejoin:miter;" x="329.755078" xlink:href="#m971b2b8fa0" y="260.8"/>
     <use style="stroke:#000000;stroke-linejoin:miter;" x="334.439223" xlink:href="#m971b2b8fa0" y="260.8"/>
     <use style="stroke:#000000;stroke-linejoin:miter;" x="336.253551" xlink:href="#m971b2b8fa0" y="260.8"/>
    </g>
   </g>
   <g id="line2d_51">
    <path clip-path="url(#p4876d6c43d)" d="M 185.261144 21.568 
L 185.261144 44.352 
" style="fill:none;stroke:#000000;stroke-linecap:round;stroke-width:1.5;"/>
   </g>
   <g id="line2d_52">
    <path clip-path="url(#p4876d6c43d)" d="M 185.629233 50.048 
L 185.629233 72.832 
" style="fill:none;stroke:#000000;stroke-linecap:round;stroke-width:1.5;"/>
   </g>
   <g id="line2d_53">
    <path clip-path="url(#p4876d6c43d)" d="M 185.994023 78.528 
L 185.994023 101.312 
" style="fill:none;stroke:#000000;stroke-linecap:round;stroke-width:1.5;"/>
   </g>
   <g id="line2d_54">
    <path clip-path="url(#p4876d6c43d)" d="M 193.646796 107.008 
L 193.646796 129.792 
" style="fill:none;stroke:#000000;stroke-linecap:round;stroke-width:1.5;"/>
   </g>
   <g id="line2d_55">
    <path clip-path="url(#p4876d6c43d)" d="M 210.015399 135.488 
L 210.015399 158.272 
" style="fill:none;stroke:#000000;stroke-linecap:round;stroke-width:1.5;"/>
   </g>
   <g id="line2d_56">
    <path clip-path="url(#p4876d6c43d)" d="M 254.49333 163.968 
L 254.49333 186.752 
" style="fill:none;stroke:#000000;stroke-linecap:round;stroke-width:1.5;"/>
   </g>
   <g id="line2d_57">
    <path clip-path="url(#p4876d6c43d)" d="M 263.951209 192.448 
L 263.951209 215.232 
" style="fill:none;stroke:#000000;stroke-linecap:round;stroke-width:1.5;"/>
   </g>
   <g id="line2d_58">
    <path clip-path="url(#p4876d6c43d)" d="M 258.35362 220.928 
L 258.35362 243.712 
" style="fill:none;stroke:#000000;stroke-linecap:round;stroke-width:1.5;"/>
   </g>
   <g id="line2d_59">
    <path clip-path="url(#p4876d6c43d)" d="M 214.115839 249.408 
L 214.115839 272.192 
" style="fill:none;stroke:#000000;stroke-linecap:round;stroke-width:1.5;"/>
   </g>
   <g id="patch_12">
    <path d="M 159.62625 275.04 
L 159.62625 18.72 
" style="fill:none;stroke:#cccccc;stroke-linecap:square;stroke-linejoin:miter;stroke-width:1.25;"/>
   </g>
   <g id="patch_13">
    <path d="M 347.04 275.04 
L 347.04 18.72 
" style="fill:none;stroke:#cccccc;stroke-linecap:square;stroke-linejoin:miter;stroke-width:1.25;"/>
   </g>
   <g id="patch_14">
    <path d="M 159.62625 275.04 
L 347.04 275.04 
" style="fill:none;stroke:#cccccc;stroke-linecap:square;stroke-linejoin:miter;stroke-width:1.25;"/>
   </g>
   <g id="patch_15">
    <path d="M 159.62625 18.72 
L 347.04 18.72 
" style="fill:none;stroke:#cccccc;stroke-linecap:square;stroke-linejoin:miter;stroke-width:1.25;"/>
   </g>
   <g id="text_11">
    <!-- 0.08s -->
    <g style="fill:#4c72b0;" transform="translate(173.323296 35.808)scale(0.09996 -0.09996)">
     <defs>
      <path d="M 27.4375 71.875 
Q 37.84375 71.875 43.703125 64.453125 
Q 50.6875 55.671875 50.6875 35.296875 
Q 50.6875 14.984375 43.65625 6.109375 
Q 37.84375 -1.21875 27.4375 -1.21875 
Q 17 -1.21875 10.59375 6.8125 
Q 4.203125 14.84375 4.203125 35.453125 
Q 4.203125 55.671875 11.234375 64.546875 
Q 17.046875 71.875 27.4375 71.875 
z
M 27.4375 60.5 
Q 24.953125 60.5 23 58.90625 
Q 21.046875 57.328125 19.96875 53.21875 
Q 18.5625 47.90625 18.5625 35.296875 
Q 18.5625 22.703125 19.828125 17.984375 
Q 21.09375 13.28125 23.015625 11.71875 
Q 24.953125 10.15625 27.4375 10.15625 
Q 29.9375 10.15625 31.890625 11.734375 
Q 33.84375 13.328125 34.90625 17.4375 
Q 36.328125 22.703125 36.328125 35.296875 
Q 36.328125 47.90625 35.0625 52.609375 
Q 33.796875 57.328125 31.859375 58.90625 
Q 29.9375 60.5 27.4375 60.5 
z
" id="Arial-BoldMT-48"/>
      <path d="M 7.171875 0 
L 7.171875 13.71875 
L 20.90625 13.71875 
L 20.90625 0 
z
" id="Arial-BoldMT-46"/>
      <path d="M 16.015625 38.625 
Q 10.6875 40.875 8.265625 44.796875 
Q 5.859375 48.734375 5.859375 53.421875 
Q 5.859375 61.421875 11.453125 66.640625 
Q 17.046875 71.875 27.34375 71.875 
Q 37.546875 71.875 43.1875 66.640625 
Q 48.828125 61.421875 48.828125 53.421875 
Q 48.828125 48.4375 46.234375 44.546875 
Q 43.65625 40.671875 38.96875 38.625 
Q 44.921875 36.234375 48.015625 31.640625 
Q 51.125 27.046875 51.125 21.046875 
Q 51.125 11.140625 44.796875 4.9375 
Q 38.484375 -1.265625 27.984375 -1.265625 
Q 18.21875 -1.265625 11.71875 3.859375 
Q 4.046875 9.90625 4.046875 20.453125 
Q 4.046875 26.265625 6.921875 31.125 
Q 9.8125 35.984375 16.015625 38.625 
z
M 18.84375 52.4375 
Q 18.84375 48.34375 21.15625 46.046875 
Q 23.484375 43.75 27.34375 43.75 
Q 31.25 43.75 33.59375 46.0625 
Q 35.9375 48.390625 35.9375 52.484375 
Q 35.9375 56.34375 33.609375 58.65625 
Q 31.296875 60.984375 27.484375 60.984375 
Q 23.53125 60.984375 21.1875 58.640625 
Q 18.84375 56.296875 18.84375 52.4375 
z
M 17.578125 21.78125 
Q 17.578125 16.109375 20.484375 12.9375 
Q 23.390625 9.765625 27.734375 9.765625 
Q 31.984375 9.765625 34.765625 12.8125 
Q 37.546875 15.875 37.546875 21.625 
Q 37.546875 26.65625 34.71875 29.703125 
Q 31.890625 32.765625 27.546875 32.765625 
Q 22.515625 32.765625 20.046875 29.296875 
Q 17.578125 25.828125 17.578125 21.78125 
z
" id="Arial-BoldMT-56"/>
      <path d="M 2.34375 14.796875 
L 16.109375 16.890625 
Q 17 12.890625 19.671875 10.8125 
Q 22.359375 8.734375 27.203125 8.734375 
Q 32.515625 8.734375 35.203125 10.6875 
Q 37.015625 12.0625 37.015625 14.359375 
Q 37.015625 15.921875 36.03125 16.9375 
Q 35.015625 17.921875 31.453125 18.75 
Q 14.84375 22.40625 10.40625 25.4375 
Q 4.25 29.640625 4.25 37.109375 
Q 4.25 43.84375 9.5625 48.4375 
Q 14.890625 53.03125 26.078125 53.03125 
Q 36.71875 53.03125 41.890625 49.5625 
Q 47.078125 46.09375 49.03125 39.3125 
L 36.078125 36.921875 
Q 35.25 39.9375 32.921875 41.546875 
Q 30.609375 43.171875 26.3125 43.171875 
Q 20.90625 43.171875 18.5625 41.65625 
Q 17 40.578125 17 38.875 
Q 17 37.40625 18.359375 36.375 
Q 20.21875 35.015625 31.171875 32.515625 
Q 42.140625 30.03125 46.484375 26.421875 
Q 50.78125 22.75 50.78125 16.21875 
Q 50.78125 9.078125 44.828125 3.953125 
Q 38.875 -1.171875 27.203125 -1.171875 
Q 16.609375 -1.171875 10.421875 3.125 
Q 4.25 7.421875 2.34375 14.796875 
z
" id="Arial-BoldMT-115"/>
     </defs>
     <use xlink:href="#Arial-BoldMT-48"/>
     <use x="55.615234" xlink:href="#Arial-BoldMT-46"/>
     <use x="83.398438" xlink:href="#Arial-BoldMT-48"/>
     <use x="139.013672" xlink:href="#Arial-BoldMT-56"/>
     <use x="194.628906" xlink:href="#Arial-BoldMT-115"/>
    </g>
   </g>
   <g id="text_12">
    <!-- 0.08s -->
    <g style="fill:#4c72b0;" transform="translate(173.323296 64.288)scale(0.09996 -0.09996)">
     <use xlink:href="#Arial-BoldMT-48"/>
     <use x="55.615234" xlink:href="#Arial-BoldMT-46"/>
     <use x="83.398438" xlink:href="#Arial-BoldMT-48"/>
     <use x="139.013672" xlink:href="#Arial-BoldMT-56"/>
     <use x="194.628906" xlink:href="#Arial-BoldMT-115"/>
    </g>
   </g>
   <g id="text_13">
    <!-- 0.08s -->
    <g style="fill:#4c72b0;" transform="translate(173.323296 92.768)scale(0.09996 -0.09996)">
     <use xlink:href="#Arial-BoldMT-48"/>
     <use x="55.615234" xlink:href="#Arial-BoldMT-46"/>
     <use x="83.398438" xlink:href="#Arial-BoldMT-48"/>
     <use x="139.013672" xlink:href="#Arial-BoldMT-56"/>
     <use x="194.628906" xlink:href="#Arial-BoldMT-115"/>
    </g>
   </g>
   <g id="text_14">
    <!-- 0.13s -->
    <g style="fill:#4c72b0;" transform="translate(181.707322 121.248)scale(0.09996 -0.09996)">
     <defs>
      <path d="M 39.359375 0 
L 25.640625 0 
L 25.640625 51.703125 
Q 18.109375 44.671875 7.90625 41.3125 
L 7.90625 53.765625 
Q 13.28125 55.515625 19.578125 60.421875 
Q 25.875 65.328125 28.21875 71.875 
L 39.359375 71.875 
z
" id="Arial-BoldMT-49"/>
      <path d="M 3.765625 19 
L 17.046875 20.609375 
Q 17.671875 15.53125 20.453125 12.84375 
Q 23.25 10.15625 27.203125 10.15625 
Q 31.453125 10.15625 34.34375 13.375 
Q 37.25 16.609375 37.25 22.078125 
Q 37.25 27.25 34.46875 30.265625 
Q 31.6875 33.296875 27.6875 33.296875 
Q 25.046875 33.296875 21.390625 32.28125 
L 22.90625 43.453125 
Q 28.46875 43.3125 31.390625 45.875 
Q 34.328125 48.4375 34.328125 52.6875 
Q 34.328125 56.296875 32.171875 58.4375 
Q 30.03125 60.59375 26.46875 60.59375 
Q 22.953125 60.59375 20.453125 58.15625 
Q 17.96875 55.71875 17.4375 51.03125 
L 4.78125 53.171875 
Q 6.109375 59.671875 8.765625 63.546875 
Q 11.421875 67.4375 16.1875 69.65625 
Q 20.953125 71.875 26.859375 71.875 
Q 36.96875 71.875 43.0625 65.4375 
Q 48.09375 60.15625 48.09375 53.515625 
Q 48.09375 44.09375 37.796875 38.484375 
Q 43.953125 37.15625 47.625 32.5625 
Q 51.3125 27.984375 51.3125 21.484375 
Q 51.3125 12.0625 44.421875 5.421875 
Q 37.546875 -1.21875 27.296875 -1.21875 
Q 17.578125 -1.21875 11.171875 4.375 
Q 4.78125 9.96875 3.765625 19 
z
" id="Arial-BoldMT-51"/>
     </defs>
     <use xlink:href="#Arial-BoldMT-48"/>
     <use x="55.615234" xlink:href="#Arial-BoldMT-46"/>
     <use x="83.398438" xlink:href="#Arial-BoldMT-49"/>
     <use x="139.013672" xlink:href="#Arial-BoldMT-51"/>
     <use x="194.628906" xlink:href="#Arial-BoldMT-115"/>
    </g>
   </g>
   <g id="text_15">
    <!-- 0.32s -->
    <g style="fill:#4c72b0;" transform="translate(197.262618 149.728)scale(0.09996 -0.09996)">
     <defs>
      <path d="M 50.59375 12.75 
L 50.59375 0 
L 2.484375 0 
Q 3.265625 7.234375 7.171875 13.703125 
Q 11.078125 20.171875 22.609375 30.859375 
Q 31.890625 39.5 33.984375 42.578125 
Q 36.8125 46.828125 36.8125 50.984375 
Q 36.8125 55.5625 34.34375 58.03125 
Q 31.890625 60.5 27.546875 60.5 
Q 23.25 60.5 20.703125 57.90625 
Q 18.171875 55.328125 17.78125 49.3125 
L 4.109375 50.6875 
Q 5.328125 62.015625 11.765625 66.9375 
Q 18.21875 71.875 27.875 71.875 
Q 38.484375 71.875 44.53125 66.15625 
Q 50.59375 60.453125 50.59375 51.953125 
Q 50.59375 47.125 48.859375 42.75 
Q 47.125 38.375 43.359375 33.59375 
Q 40.875 30.421875 34.375 24.453125 
Q 27.875 18.5 26.140625 16.546875 
Q 24.421875 14.59375 23.34375 12.75 
z
" id="Arial-BoldMT-50"/>
     </defs>
     <use xlink:href="#Arial-BoldMT-48"/>
     <use x="55.615234" xlink:href="#Arial-BoldMT-46"/>
     <use x="83.398438" xlink:href="#Arial-BoldMT-51"/>
     <use x="139.013672" xlink:href="#Arial-BoldMT-50"/>
     <use x="194.628906" xlink:href="#Arial-BoldMT-115"/>
    </g>
   </g>
   <g id="text_16">
    <!-- 4.27s -->
    <g style="fill:#4c72b0;" transform="translate(242.006314 178.208)scale(0.09996 -0.09996)">
     <defs>
      <path d="M 31.15625 0 
L 31.15625 14.40625 
L 1.859375 14.40625 
L 1.859375 26.421875 
L 32.90625 71.875 
L 44.4375 71.875 
L 44.4375 26.46875 
L 53.328125 26.46875 
L 53.328125 14.40625 
L 44.4375 14.40625 
L 44.4375 0 
z
M 31.15625 26.46875 
L 31.15625 50.921875 
L 14.703125 26.46875 
z
" id="Arial-BoldMT-52"/>
      <path d="M 4.25 57.859375 
L 4.25 70.609375 
L 51.171875 70.609375 
L 51.171875 60.640625 
Q 45.359375 54.9375 39.34375 44.234375 
Q 33.34375 33.546875 30.1875 21.5 
Q 27.046875 9.46875 27.09375 0 
L 13.875 0 
Q 14.203125 14.84375 19.984375 30.265625 
Q 25.78125 45.703125 35.453125 57.859375 
z
" id="Arial-BoldMT-55"/>
     </defs>
     <use xlink:href="#Arial-BoldMT-52"/>
     <use x="55.615234" xlink:href="#Arial-BoldMT-46"/>
     <use x="83.398438" xlink:href="#Arial-BoldMT-50"/>
     <use x="139.013672" xlink:href="#Arial-BoldMT-55"/>
     <use x="194.628906" xlink:href="#Arial-BoldMT-115"/>
    </g>
   </g>
   <g id="text_17">
    <!-- 7.38s -->
    <g style="fill:#4c72b0;" transform="translate(251.454982 206.688)scale(0.09996 -0.09996)">
     <use xlink:href="#Arial-BoldMT-55"/>
     <use x="55.615234" xlink:href="#Arial-BoldMT-46"/>
     <use x="83.398438" xlink:href="#Arial-BoldMT-51"/>
     <use x="139.013672" xlink:href="#Arial-BoldMT-56"/>
     <use x="194.628906" xlink:href="#Arial-BoldMT-115"/>
    </g>
   </g>
   <g id="text_18">
    <!-- 5.33s -->
    <g style="fill:#4c72b0;" transform="translate(245.835402 235.168)scale(0.09996 -0.09996)">
     <defs>
      <path d="M 4.4375 18.40625 
L 18.109375 19.828125 
Q 18.703125 15.1875 21.578125 12.46875 
Q 24.46875 9.765625 28.21875 9.765625 
Q 32.515625 9.765625 35.5 13.25 
Q 38.484375 16.75 38.484375 23.78125 
Q 38.484375 30.375 35.515625 33.671875 
Q 32.5625 36.96875 27.828125 36.96875 
Q 21.921875 36.96875 17.234375 31.734375 
L 6.109375 33.34375 
L 13.140625 70.609375 
L 49.421875 70.609375 
L 49.421875 57.765625 
L 23.53125 57.765625 
L 21.390625 45.609375 
Q 25.984375 47.90625 30.765625 47.90625 
Q 39.890625 47.90625 46.234375 41.265625 
Q 52.59375 34.625 52.59375 24.03125 
Q 52.59375 15.1875 47.46875 8.25 
Q 40.484375 -1.21875 28.078125 -1.21875 
Q 18.171875 -1.21875 11.921875 4.09375 
Q 5.671875 9.421875 4.4375 18.40625 
z
" id="Arial-BoldMT-53"/>
     </defs>
     <use xlink:href="#Arial-BoldMT-53"/>
     <use x="55.615234" xlink:href="#Arial-BoldMT-46"/>
     <use x="83.398438" xlink:href="#Arial-BoldMT-51"/>
     <use x="139.013672" xlink:href="#Arial-BoldMT-51"/>
     <use x="194.628906" xlink:href="#Arial-BoldMT-115"/>
    </g>
   </g>
   <g id="text_19">
    <!-- 0.41s -->
    <g style="fill:#4c72b0;" transform="translate(201.542394 263.648)scale(0.09996 -0.09996)">
     <use xlink:href="#Arial-BoldMT-48"/>
     <use x="55.615234" xlink:href="#Arial-BoldMT-46"/>
     <use x="83.398438" xlink:href="#Arial-BoldMT-52"/>
     <use x="139.013672" xlink:href="#Arial-BoldMT-49"/>
     <use x="194.628906" xlink:href="#Arial-BoldMT-115"/>
    </g>
   </g>
  </g>
 </g>
 <defs>
  <clipPath id="p4876d6c43d">
   <rect height="256.32" width="187.41375" x="159.62625" y="18.72"/>
  </clipPath>
 </defs>
</svg>
